mtllib materials.mtl
v -0.04707211 -0.007340435 0.09228856
v 0.01162321 -0.006399333 0.09339117
v 0.01350607 -0.02713924 0.09217719
v -0.04520622 -0.02713924 0.09250806
v 0.05973329 -0.004198618 0.05980812
v 0.06081086 -0.02713924 0.05739929
v 0.07888167 -0.00157889 0.004367009
v 0.07863927 -0.02713923 0.001458351
v 0.06175437 0.0004592054 -0.05175559
v 0.06018149 -0.02713922 -0.05427814
v 0.01489342 0.001137182 -0.08712271
v 0.01248778 -0.02713921 -0.08852067
v -0.04380193 0.0001960807 -0.08822532
v -0.04622453 -0.02713921 -0.0881898
v -0.09191198 -0.002004638 -0.05464228
v -0.09352928 -0.02713922 -0.05341191
v -0.1110604 -0.004624363 0.0007988792
v -0.1113577 -0.02713923 0.002529068
v -0.09393308 -0.006662462 0.05692144
v -0.09289993 -0.02713924 0.05826552
v -0.09318085 0.005477212 0.001544525
v -0.07930773 0.00382635 0.0470038
v -0.01635923 0.01286077 0.001993695
v -0.07767065 0.007599186 -0.04336281
v -0.0387015 0.009381771 -0.07056507
v 0.008841726 0.01014406 -0.06967196
v 0.04679909 0.009594902 -0.0410246
v 0.06067221 0.00794404 0.004434711
v 0.04516202 0.005822062 0.04934201
v 0.00619286 0.004039481 0.07654428
v -0.04135035 0.003277194 0.07565116
v -0.07872977 0.01552381 0.002225766
v -0.06749254 0.01418662 0.03904778
v -0.06616651 0.01724261 -0.03414918
v -0.0346015 0.01868651 -0.056183
v 0.003908514 0.01930396 -0.05545958
v 0.03465398 0.01885914 -0.03225522
v 0.0458912 0.01752195 0.004566818
v 0.03332795 0.01580314 0.04094172
v 0.001762933 0.01435925 0.06297556
v -0.03674706 0.0137418 0.06225214
v -0.0618408 0.01562677 0.002536021
v -0.05364886 0.01465195 0.02937926
v -0.05268218 0.01687977 -0.02398131
v -0.02967129 0.01793238 -0.04004396
v -0.001597495 0.0183825 -0.03951659
v 0.02081595 0.01805823 -0.02260062
v 0.02900788 0.01708341 0.004242648
v 0.01984927 0.01583041 0.03075995
v -0.003161626 0.01477781 0.04682261
v -0.03123541 0.01432768 0.04629524
v 0.01319269 0.01748407 -0.01183958
v 0.02317365 0.01777767 -0.01487487
v 0.02283774 0.03775769 -0.01404678
v 0.013809 0.03735079 -0.007891275
v 0.01392237 0.03060766 -0.008170748
v 0.01902692 0.01678981 0.007277949
v 0.01880469 0.03000843 0.007825807
v 0.01869101 0.03676984 0.008106038
v 0.02867197 0.03706344 0.005070739
v 0.02900787 0.01708341 0.00424265
v -0.05577747 0.03530379 0.01327058
v -0.0556641 0.02856066 0.01299111
v -0.04495893 0.02887557 0.009735569
v -0.05089545 0.03472285 0.02926789
v -0.04004314 0.02827733 0.02572195
v -0.05078176 0.02796144 0.02898766
v -0.05628608 0.008715186 0.009026192
v -0.04558091 0.009030096 0.005770654
v -0.05045153 0.00800265 0.02814296
v -0.0397129 0.008318543 0.02487725
vn -0.006369716 -0.02511257 0.9996644
vn 0.5826065 -0.02788362 0.8122759
vn 0.9490387 -0.01815385 0.3146364
vn 0.9529323 -0.001565228 -0.3031793
vn 0.5928615 0.01428192 -0.8051777
vn 0.006379205 0.02393788 -0.9996931
vn -0.5826073 0.02525859 -0.8123612
vn -0.9490342 0.01858522 -0.3146249
vn -0.9528995 0.005374788 0.3032386
vn -0.59287 -0.01141476 0.8052173
vn -0.4895236 0.8531308 0.180373
vn 0.236099 -0.9143955 -0.3288438
vn -0.4839694 0.8659317 -0.1262373
vn -0.2991233 0.8791798 -0.3709018
vn -0.005590538 0.8878145 -0.4601676
vn 0.2845093 0.8885376 -0.359938
vn 0.4603681 0.8810729 -0.1084973
vn 0.4548133 0.8682721 0.1981124
vn 0.2699673 0.855024 0.4427772
vn -0.02356537 0.8463894 0.5320429
vn -0.3136652 0.8456663 0.4318133
vn -0.56549 0.7997323 0.201617
vn -0.5590372 0.8146039 -0.1545897
vn -0.3442908 0.829995 -0.4388305
vn -0.003276956 0.8400264 -0.5425357
vn 0.3337487 0.8408664 -0.4260935
vn 0.5380539 0.8321943 -0.1339803
vn 0.5316011 0.8173224 0.2222261
vn 0.3168544 0.8019316 0.5064672
vn -0.02415938 0.7919003 0.6101724
vn -0.3611851 0.7910602 0.4937298
vn -0.0067962 0.9992408 0.03836172
vn -0.006913187 0.9989713 0.04481596
vn -0.01080466 0.9986925 0.04996659
vn -0.01698375 0.9985107 0.0518457
vn -0.02309063 0.9984955 0.04973559
vn -0.02679279 0.9986526 0.04444262
vn -0.02667587 0.9989221 0.03798822
vn -0.02278461 0.999201 0.03283753
vn -0.01660533 0.9993827 0.03095836
vn -0.01049828 0.999398 0.033068
vn -0.0167955 0.9990014 0.04140439
vn -0.2397902 -0.9143955 -0.326162
vn -0.002281295 -0.9143955 -0.4048158
vn 0.3842976 -0.9143955 -0.1272648
vn 0.3857075 -0.9143955 0.1229251
vn 0.2397903 -0.9143956 0.3261617
vn 0.002281318 -0.9143955 0.4048156
vn -0.236099 -0.9143956 0.3288435
vn -0.3842975 -0.9143956 0.1272644
vn -0.3857075 -0.9143955 -0.1229254
vn -0.4811427 0.1076725 -0.8700048
vn 0.2917118 -0.03471285 0.9558762
vn 0.01679558 -0.9990013 -0.04140459
vn -0.0167951 0.9990013 0.04140453
vn -0.9563589 -0.02813234 0.2908372
vn 0.9563589 0.02813242 -0.2908373
vn -0.2917115 0.03471281 -0.9558763
vn -0.01679557 0.9990013 0.0414048
vn 0.2917116 -0.0347126 0.9558763
vn 0.01647663 -0.9989628 -0.04244971
vn -0.9563588 -0.02813298 0.2908375
vn -0.2905756 0.1962134 -0.9365181
vn -0.9563587 -0.02813268 0.2908378
vn 0.2917269 -0.03562644 0.955838
vn 0.9557988 0.02835608 -0.292651
vn 0.01652901 -0.9989691 -0.04227912
vt 0.004859774 -0.001302861
vt 0.002355072 0.004006934
vt 0.0004090736 0.00325877
vt 0.003001773 -0.002008617
vt 0.00488984 -0.001070634
vt 0.002474904 0.004280607
vt 0.0003170183 0.003461379
vt 0.002934369 -0.001793827
vt 0.00498391 0.0001985969
vt 0.001560622 0.004968173
vt -0.0006144589 0.003595992
vt 0.003020226 -0.001014522
vt 0.00306319 0.003940953
vt -0.002773099 0.004577674
vt -0.003264228 0.001846534
vt 0.002590663 0.00141302
vt -0.001544925 0.004764247
vt -0.005322131 0.0002697878
vt -0.003312971 -0.001738015
vt 0.0004136307 0.00279849
vt -0.002539059 0.004335251
vt -0.005045735 -0.000973615
vt -0.002701072 -0.002397856
vt -0.0001065619 0.002868643
vt -0.002346603 0.004453396
vt -0.00475859 -0.0008991663
vt -0.002598955 -0.002199146
vt 1.517497E-05 0.003057653
vt -0.001124465 0.004914623
vt -0.004549368 0.0001461984
vt -0.002889605 -0.001383691
vt 0.0007466866 0.003225562
vt 0.003049524 0.004022463
vt -0.002787199 0.003389719
vt -0.002796449 0.001336206
vt 0.003058776 0.001765206
vt 0.005040893 -0.0002371718
vt 0.001252121 0.004247545
vt -0.0003794245 0.003112496
vt 0.003358541 -0.001414654
vt -0.002168714 -0.006073277
vt 0.00369291 -0.005735974
vt 0.003022433 -0.003793497
vt -0.001725482 -0.004066712
vt 0.006084263 -0.005177369
vt -0.001534246 0.001765853
vt 0.001057276 -0.00821082
vt 0.001440385 -0.006527995
vt 0.006205534 -0.00309786
vt 0.004597385 -0.001818558
vt 0.0007376151 -0.004596967
vt 0.004517878 -0.005177101
vt 0.006910551 0.0001845699
vt 0.004877138 0.0004811967
vt 0.002939073 -0.003861757
vt 0.006499058 -0.002445178
vt 0.005851387 0.003390315
vt 0.003947199 0.002617772
vt 0.004471812 -0.002108977
vt 0.006643252 0.001781067
vt 0.002569351 0.006009039
vt 0.001532156 0.004235066
vt 0.004832015 0.0008104083
vt 0.002790119 0.006084024
vt -0.003054477 0.005524426
vt -0.002310738 0.003608805
vt 0.002423385 0.004062078
vt -0.002684145 0.00586925
vt -0.006087648 0.00108505
vt -0.004152731 0.0003930597
vt -0.001395893 0.004268262
vt -0.005492331 0.002987024
vt -0.005494784 -0.0028843
vt -0.003516764 -0.00232735
vt -0.003514776 0.002428421
vt -0.00615996 -0.0004009234
vt -0.003232218 -0.005490202
vt -0.001796003 -0.004020494
vt -0.004167474 0.0001018214
vt -0.00502485 -0.003717778
vt 8.613868E-05 -0.006607453
vt 0.0005739974 -0.004611268
vt -0.003565903 -0.002270632
vt -0.001767303 -0.003291743
vt 0.002980373 -0.003014397
vt 0.002430063 -0.001341233
vt -0.001415554 -0.001565882
vt 0.0002859423 -0.003955409
vt 0.004138922 -0.001167592
vt 0.002774943 -5.319518E-05
vt -0.0003459709 -0.002311327
vt 0.002145477 -0.003578896
vt 0.00416537 0.000726609
vt 0.002432251 0.001040642
vt 0.0007961371 -0.002446817
vt 0.003552018 -0.002404089
vt 0.003299366 0.002344968
vt 0.001623362 0.001803367
vt 0.001828011 -0.002043369
vt 0.004276099 -8.011397E-05
vt 0.001265254 0.003601212
vt 0.0002334902 0.002173703
vt 0.002672274 -0.0008081711
vt 0.002448829 0.003332233
vt -0.002278256 0.002810658
vt -0.001642476 0.001168067
vt 0.002186462 0.001590543
vt -0.001089437 0.003752802
vt -0.003520135 -0.0003348677
vt -0.001825967 -0.0008166487
vt 0.0001428989 0.002494364
vt -0.002879284 0.002289297
vt -0.002647419 -0.002460819
vt -0.0009690612 -0.001926557
vt -0.001156872 0.001921037
vt -0.003519568 0.0004325207
vt -0.00109507 -0.003658832
vt 0.000139172 -0.002402262
vt -0.001824671 0.0009117333
vt -0.003195778 -0.001593304
vt 0.0009352746 -0.00394952
vt 0.001386272 -0.002246898
vt -0.00195988 -0.0003383631
vt -0.001121457 -0.006157347
vt 0.002723171 -0.005916356
vt 0.002101718 -0.004345612
vt -0.000701015 -0.004521294
vt 0.002774298 -0.00589497
vt 0.005736516 -0.003432344
vt 0.0043081 -0.00253064
vt 0.002148643 -0.004325894
vt 0.005761957 -0.003391463
vt 0.006705391 0.0003433959
vt 0.005019937 0.0002307818
vt 0.004332173 -0.002491931
vt 0.006702931 0.0003800517
vt 0.005271672 0.003956468
vt 0.003974067 0.00287496
vt 0.005017454 0.0002677522
vt 0.00525437 0.003976389
vt 0.001997988 0.006034354
vt 0.001580955 0.004397429
vt 0.003954857 0.002897173
vt 0.001977155 0.006038523
vt -0.001867611 0.005799707
vt -0.001247047 0.004228611
vt 0.001555787 0.004402709
vt -0.001888237 0.005790565
vt -0.004864663 0.003345135
vt -0.003441492 0.002435175
vt -0.001271678 0.004217894
vt -0.004880207 0.003320371
vt -0.005856482 -0.0004060404
vt -0.004170101 -0.0003082661
vt -0.003458396 0.002408287
vt -0.005854207 -0.0004449782
vt -0.004453232 -0.004033364
vt -0.003146531 -0.002962861
vt -0.004167842 -0.0003469288
vt -0.004421755 -0.004070812
vt -0.001175444 -0.006144627
vt -0.0007504362 -0.004509754
vt -0.003116997 -0.002997943
vt -0.0007061627 -0.004459459
vt 0.002096621 -0.004284584
vt 0.004261333 -0.002495669
vt 0.004961123 0.0002239769
vt 0.003928697 0.002835544
vt 0.001558407 0.004341501
vt -0.001244379 0.004166623
vt -0.003409088 0.002377711
vt -0.004108878 -0.0003419362
vt -0.003076453 -0.002953502
vt 0.007461748 -0.00246513
vt 0.007023721 0.003389833
vt -0.002610615 -0.0002748078
vt 0.005032654 -0.006278714
vt 0.007752779 -0.001075509
vt -0.00236379 0.0009006058
vt -0.0003084628 0.002087649
vt -0.003451169 -0.007729345
vt 0.002418856 -0.007852758
vt 0.0009210091 0.001699809
vt -0.006975641 -0.004925362
vt -0.00207719 -0.00816228
vt 0.001750993 0.0007401322
vt -0.008436622 -0.000829097
vt -0.005927135 -0.006137099
vt -0.00750364 0.003548369
vt -0.008196074 -0.002281982
vt 0.001962072 -0.0005321075
vt -0.003673158 0.007186222
vt -0.007797507 0.003007448
vt 0.001297153 -0.001844062
vt 0.002820727 0.007351689
vt -0.003047575 0.007540078
vt -0.0004304651 -0.002429915
vt 0.007288676 0.002753593
vt 0.003398441 0.007151147
vt -0.002057117 -0.001594533
vt -0.004000413 0.005451936
vt -0.003597201 0.006390681
vt -0.005415666 0.007207886
vt -0.005869478 0.006218612
vt -0.005255758 0.00594281
vt 0.004161657 0.0052947
vt 0.005374765 0.005823079
vt 0.005995278 0.006093348
vt 0.005578527 0.007050169
vt 0.003744907 0.00625152
vt -0.0008167308 0.003249553
vt 0.001179388 0.003125007
vt 0.001244377 0.004166623
vt -0.0007517406 0.004291168
vt 0.0004909408 0.003229222
vt 0.0007517412 0.004291166
vt -0.001244377 0.00416662
vt -0.001179387 0.003125004
vt 0.0001663682 0.006014114
vt -0.0003446478 0.00727945
vt -0.002001052 0.007040321
vt -0.001813422 0.005730509
vt -0.0001663692 0.006014114
vt 0.001813421 0.005730509
vt 0.002097025 0.007710299
vt 0.0001172354 0.007993904
vt -0.005376443 0.00582381
vt -0.005995278 0.006093349
vt -0.008900831 -0.0005775339
vt -0.008281996 -0.0008470725
vt -0.007835006 0.0001791755
vt 0.0004909415 0.003229227
vt -0.001179386 0.003125009
vt -0.0007262784 -0.004137057
vt 0.0009440494 -0.00403284
vt 0.005995278 0.006093348
vt 0.005374765 0.005823079
vt 0.007831931 0.0001816531
vt 0.008280318 -0.0008478016
vt 0.008900831 -0.000577533
vt 0.001172955 0.003124946
vt -0.0004973243 0.003229956
vt -0.0008836405 -0.002914732
vt 0.0007868583 -0.003016249
vt -0.0003446413 0.00727945
vt -0.0004403555 0.007947616
vt -0.00209702 0.0077103
vt -0.002001046 0.007040323
vt -0.007644898 -6.502873E-06
vt -0.008078073 -0.001038658
vt -0.006211102 -0.001822189
vt -0.005777927 -0.000790034
vt -0.0003446355 0.007279449
vt -0.002001041 0.007040323
vt -0.001715922 0.005062833
vt 0.0002636092 0.005348247
vt 0.008281099 -0.0008478424
vt 0.00783276 0.0001816338
vt 0.006000992 -0.0006161021
vt 0.00644933 -0.001645579
vt 0.001965665 0.007049978
vt 0.0003082576 0.007282083
vt -0.0002917968 0.00534832
vt 0.001688929 0.005071298
vt -0.001207904 -0.002894423
vt -0.001278053 -0.004011591
vt 0.0007180171 -0.004136927
vt 0.0007883857 -0.003016268
o group1926014716
g mesh1926014716
usemtl mat16
f 4/4/1 3/3/1 2/2/1 1/1/1
f 3/8/2 6/7/2 5/6/2 2/5/2
f 6/12/3 8/11/3 7/10/3 5/9/3
f 8/16/4 10/15/4 9/14/4 7/13/4
f 10/20/5 12/19/5 11/18/5 9/17/5
f 12/24/6 14/23/6 13/22/6 11/21/6
f 14/28/7 16/27/7 15/26/7 13/25/7
f 16/32/8 18/31/8 17/30/8 15/29/8
f 18/36/9 20/35/9 19/34/9 17/33/9
f 20/40/10 4/39/10 1/38/10 19/37/10
f 22/44/11 21/43/11 17/42/11 19/41/11
f 20/47/12 23/46/12 4/45/12
f 21/51/13 24/50/13 15/49/13 17/48/13
f 24/55/14 25/54/14 13/53/14 15/52/14
f 25/59/15 26/58/15 11/57/15 13/56/15
f 26/63/16 27/62/16 9/61/16 11/60/16
f 27/67/17 28/66/17 7/65/17 9/64/17
f 28/71/18 29/70/18 5/69/18 7/68/18
f 29/75/19 30/74/19 2/73/19 5/72/19
f 30/79/20 31/78/20 1/77/20 2/76/20
f 31/83/21 22/82/21 19/81/21 1/80/21
f 33/87/22 32/86/22 21/85/22 22/84/22
f 32/91/23 34/90/23 24/89/23 21/88/23
f 34/95/24 35/94/24 25/93/24 24/92/24
f 35/99/25 36/98/25 26/97/25 25/96/25
f 36/103/26 37/102/26 27/101/26 26/100/26
f 37/107/27 38/106/27 28/105/27 27/104/27
f 38/111/28 39/110/28 29/109/28 28/108/28
f 39/115/29 40/114/29 30/113/29 29/112/29
f 40/119/30 41/118/30 31/117/30 30/116/30
f 41/123/31 33/122/31 22/121/31 31/120/31
f 43/127/32 42/126/32 32/125/32 33/124/32
f 42/131/33 44/130/33 34/129/33 32/128/33
f 44/135/34 45/134/34 35/133/34 34/132/34
f 45/139/35 46/138/35 36/137/35 35/136/35
f 46/143/36 47/142/36 37/141/36 36/140/36
f 47/147/37 48/146/37 38/145/37 37/144/37
f 48/151/38 49/150/38 39/149/38 38/148/38
f 49/155/39 50/154/39 40/153/39 39/152/39
f 50/159/40 51/158/40 41/157/40 40/156/40
f 51/163/41 43/162/41 33/161/41 41/160/41
f 51/173/42 50/172/42 49/171/42 48/170/42 47/169/42 46/168/42 45/167/42 44/166/42 42/165/42 43/164/42
f 23/176/43 6/175/43 3/174/43
f 23/179/44 3/178/44 4/177/44
f 20/182/45 18/181/45 23/180/45
f 18/185/46 16/184/46 23/183/46
f 16/188/47 14/187/47 23/186/47
f 23/191/48 14/190/48 12/189/48
f 23/194/49 12/193/49 10/192/49
f 23/197/50 10/196/50 8/195/50
f 23/200/51 8/199/51 6/198/51
o group823671443
g mesh823671443
usemtl mat16
f 56/205/52 55/204/52 54/203/52 53/202/52 52/201/52
f 61/210/53 60/209/53 59/208/53 58/207/53 57/206/53
f 53/214/54 61/213/54 57/212/54 52/211/54
f 59/218/55 60/217/55 54/216/55 55/215/55
f 57/222/56 58/221/56 56/220/56 52/219/56
f 54/226/57 60/225/57 61/224/57 53/223/57
f 64/231/58 63/230/58 62/229/58 55/228/58 56/227/58
f 62/235/59 65/234/59 59/233/59 55/232/59
f 65/240/60 67/239/60 66/238/60 58/237/60 59/236/60
f 66/244/61 64/243/61 56/242/61 58/241/61
f 67/248/62 65/247/62 62/246/62 63/245/62
f 69/252/63 68/251/63 63/250/63 64/249/63
f 68/256/64 70/255/64 67/254/64 63/253/64
f 70/260/65 71/259/65 66/258/65 67/257/65
f 71/264/66 69/263/66 64/262/66 66/261/66
f 71/268/67 70/267/67 68/266/67 69/265/67
