# This file uses centimeters as units for non-parametric coordinates.

mtllib curb.mtl
g default
v -0.359288 0.015612 5.136131
v 0.359288 0.015612 5.136131
v -0.359288 0.015612 -5.136131
v 0.359288 0.015612 -5.136131
v -0.359288 0.191575 5.136131
v -0.359288 0.191575 -5.136131
v 0.359288 0.191575 5.136131
v 0.359288 0.191575 -5.136131
v -0.183360 0.367503 5.048176
v -0.271315 0.279548 5.136131
v 0.183360 0.367503 5.048176
v 0.271315 0.279548 5.136131
v -0.183360 0.367503 -5.048176
v -0.271315 0.279548 -5.136131
v 0.183360 0.367503 -5.048176
v 0.271315 0.279548 -5.136131
vt 0.569141 0.290691
vt 0.703188 0.963115
vt 0.703602 0.782112
vt 0.292577 0.075890
vt 0.292577 0.145038
vt 0.569141 0.075890
vt 0.707423 0.075890
vt 0.707423 0.145038
vt 0.430859 0.145038
vt 0.569141 0.145038
vt 0.569141 0.221544
vt 0.430859 0.075890
vt 0.347528 0.456720
vt 0.703300 0.634869
vt 0.652473 0.610017
vt 0.511477 0.962677
vt 0.599852 0.481445
vt 0.400148 0.585292
vt 0.447789 0.179609
vt 0.296711 0.825116
vt 0.484928 0.917920
vt 0.552211 0.186973
vt 0.599852 0.481445
vt 0.485139 0.825547
vt 0.599915 0.585171
vt 0.599915 0.585171
vt 0.652473 0.610017
vt 0.447789 0.186973
vt 0.652380 0.456535
vt 0.652380 0.456535
vt 0.347528 0.456720
vt 0.552211 0.179609
vt 0.347620 0.610202
vt 0.347620 0.610202
vt 0.400148 0.585292
vt 0.296500 0.917490
vt 0.400085 0.481566
vt 0.400085 0.481566
vt 0.703177 0.431621
vt 0.430859 0.221544
vt 0.430859 0.145038
vt 0.296823 0.635116
vt 0.569141 0.145038
vt 0.296700 0.431867
vt 0.511890 0.781674
vt 0.430859 0.290691
vt 0.569141 0.075890
vt 0.430859 0.075890
vn -0.000001 0.000000 1.000000
vn -0.000001 0.000000 1.000000
vn -0.000001 0.000000 1.000000
vn -0.000001 0.000000 1.000000
vn -0.000001 0.000000 1.000000
vn -0.000001 0.000000 1.000000
vn 0.000000 1.000000 0.000000
vn 0.000000 1.000000 0.000000
vn 0.000000 1.000000 0.000000
vn 0.000000 1.000000 0.000000
vn 0.000000 -1.000000 0.000000
vn 0.000000 -1.000000 0.000000
vn 0.000000 -1.000000 0.000000
vn 0.000000 -1.000000 0.000000
vn 1.000000 0.000000 0.000000
vn 1.000000 0.000000 0.000000
vn 1.000000 0.000000 0.000000
vn 1.000000 0.000000 0.000000
vn -1.000000 0.000000 0.000000
vn -1.000000 0.000000 0.000000
vn -1.000000 0.000000 0.000000
vn -1.000000 0.000000 0.000000
vn 0.000000 0.000000 -1.000000
vn 0.000000 0.000000 -1.000000
vn 0.000000 0.000000 -1.000000
vn 0.000000 0.000000 -1.000000
vn 0.000000 0.000000 -1.000000
vn 0.000000 0.000000 -1.000000
vn -0.707107 0.707107 0.000000
vn -0.707107 0.707107 0.000000
vn -0.707107 0.707107 0.000000
vn -0.707107 0.707107 0.000000
vn -0.707107 0.707107 0.000000
vn -0.707107 0.707107 0.000000
vn 0.707107 0.707107 0.000000
vn 0.707107 0.707107 0.000000
vn 0.707107 0.707107 0.000000
vn 0.707107 0.707107 0.000000
vn 0.707107 0.707107 0.000000
vn 0.707107 0.707107 0.000000
vn 0.000000 0.707106 0.707107
vn 0.000000 0.707106 0.707107
vn 0.000000 0.707106 0.707107
vn 0.000000 0.707106 0.707107
vn 0.000000 0.707106 -0.707107
vn 0.000000 0.707106 -0.707107
vn 0.000000 0.707106 -0.707107
vn 0.000000 0.707106 -0.707107
s off
g Curb
usemtl initialShadingGroup
f 1/48/1 2/6/2 7/43/3 12/32/4 10/19/5 5/9/6
f 15/24/7 13/21/8 9/36/9 11/20/10
f 3/16/11 4/45/12 2/3/13 1/2/14
f 2/47/15 4/7/16 8/8/17 7/10/18
f 3/4/19 1/12/20 5/41/21 6/5/22
f 6/40/23 14/28/24 16/22/25 8/11/26 4/1/27 3/46/28
f 5/42/29 10/33/30 9/35/31 13/25/32 14/27/33 6/14/34
f 11/37/35 12/31/36 7/44/37 8/39/38 16/29/39 15/23/40
f 9/18/41 10/34/42 12/13/43 11/38/44
f 14/15/45 13/26/46 15/17/47 16/30/48
