# This file uses centimeters as units for non-parametric coordinates.

mtllib path.mtl
g default
v -2.900000 0.015944 3.875269
v -0.050000 0.015944 3.875269
v -2.900000 0.042927 3.875269
v -0.050000 0.042927 3.875269
v -2.900000 0.042927 0.875269
v -0.050000 0.042927 0.875269
v -2.900000 0.015944 0.875269
v -0.050000 0.015944 0.875269
v -3.000000 0.020865 3.956720
v 3.000000 0.020865 3.956720
v -3.000000 0.025697 3.956720
v 3.000000 0.025697 3.956720
v -3.000000 0.025697 -3.941493
v 3.000000 0.025697 -3.941493
v -3.000000 0.020865 -3.941493
v 3.000000 0.020865 -3.941493
v 0.050000 0.015944 3.875047
v 2.900000 0.015944 3.875047
v 0.050000 0.042927 3.875047
v 2.900000 0.042927 3.875047
v 0.050000 0.042927 2.875047
v 2.900000 0.042927 2.875047
v 0.050000 0.015944 2.875047
v 2.900000 0.015944 2.875047
v 0.050000 0.015944 -1.876417
v 2.900000 0.015944 -1.876417
v 0.050000 0.042927 -1.876417
v 2.900000 0.042927 -1.876417
v 0.050000 0.042927 -2.804213
v 2.900000 0.042927 -2.804213
v 0.050000 0.015944 -2.804213
v 2.900000 0.015944 -2.804213
v 0.050000 0.015944 -2.932886
v 2.900000 0.015944 -2.932886
v 0.050000 0.042927 -2.932886
v 2.900000 0.042927 -2.932886
v 0.050000 0.042927 -3.860682
v 2.900000 0.042927 -3.860682
v 0.050000 0.015944 -3.860682
v 2.900000 0.015944 -3.860682
v -1.420100 0.015944 -1.581878
v -0.066587 0.015944 -1.581878
v -1.420100 0.042927 -1.581878
v -0.066587 0.042927 -1.581878
v -1.420100 0.042927 -3.867159
v -0.066587 0.042927 -3.867159
v -1.420100 0.015944 -3.867159
v -0.066587 0.015944 -3.867159
v -2.878164 0.015944 -1.581878
v -1.524651 0.015944 -1.581878
v -2.878164 0.042927 -1.581878
v -1.524651 0.042927 -1.581878
v -2.878164 0.042927 -3.867159
v -1.524651 0.042927 -3.867159
v -2.878164 0.015944 -3.867159
v -1.524651 0.015944 -3.867159
v 1.548758 0.015944 0.520678
v 2.902271 0.015944 0.520678
v 1.548758 0.042927 0.520678
v 2.902271 0.042927 0.520678
v 1.548758 0.042927 -0.540154
v 2.902271 0.042927 -0.540154
v 1.548758 0.015944 -0.540154
v 2.902271 0.015944 -0.540154
v 1.548758 0.015944 -0.652022
v 2.902271 0.015944 -0.652022
v 1.548758 0.042927 -0.652022
v 2.902271 0.042927 -0.652022
v 1.548758 0.042927 -1.712854
v 2.902271 0.042927 -1.712854
v 1.548758 0.015944 -1.712854
v 2.902271 0.015944 -1.712854
v -1.415012 0.015944 0.794253
v -0.061500 0.015944 0.794253
v -1.415012 0.042927 0.794253
v -0.061500 0.042927 0.794253
v -1.415012 0.042927 -0.266580
v -0.061500 0.042927 -0.266580
v -1.415012 0.015944 -0.266580
v -0.061500 0.015944 -0.266580
v -2.880787 0.015944 0.794253
v -1.527274 0.015944 0.794253
v -2.880787 0.042927 0.794253
v -1.527274 0.042927 0.794253
v -2.880787 0.042927 -0.266580
v -1.527274 0.042927 -0.266580
v -2.880787 0.015944 -0.266580
v -1.527274 0.015944 -0.266580
v 0.055146 0.015944 0.542687
v 1.408659 0.015944 0.542687
v 0.055146 0.042927 0.542687
v 1.408659 0.042927 0.542687
v 0.055146 0.042927 -1.742594
v 1.408659 0.042927 -1.742594
v 0.055146 0.015944 -1.742594
v 1.408659 0.015944 -1.742594
v -1.415012 0.015944 -0.378448
v -0.061500 0.015944 -0.378448
v -1.415012 0.042927 -0.378448
v -0.061500 0.042927 -0.378448
v -1.415012 0.042927 -1.439279
v -0.061500 0.042927 -1.439279
v -1.415012 0.015944 -1.439279
v -0.061500 0.015944 -1.439279
v -2.880787 0.015944 -0.378448
v -1.527274 0.015944 -0.378448
v -2.880787 0.042927 -0.378448
v -1.527274 0.042927 -0.378448
v -2.880787 0.042927 -1.439279
v -1.527274 0.042927 -1.439279
v -2.880787 0.015944 -1.439279
v -1.527274 0.015944 -1.439279
v 0.050000 0.015944 1.641192
v 2.900000 0.015944 1.641192
v 0.050000 0.042927 1.641192
v 2.900000 0.042927 1.641192
v 0.050000 0.042927 0.641192
v 2.900000 0.042927 0.641192
v 0.050000 0.015944 0.641192
v 2.900000 0.015944 0.641192
v 0.050000 0.015944 2.772537
v 2.900000 0.015944 2.772537
v 0.050000 0.042927 2.772537
v 2.900000 0.042927 2.772537
v 0.050000 0.042927 1.772537
v 2.900000 0.042927 1.772537
v 0.050000 0.015944 1.772537
v 2.900000 0.015944 1.772537
vt 0.616454 0.068596
vt 0.792244 0.068596
vt 0.616454 0.244386
vt 0.792244 0.244386
vt 0.616454 0.420176
vt 0.792244 0.420176
vt 0.616454 0.595967
vt 0.792244 0.595967
vt 0.616454 0.771757
vt 0.792244 0.771757
vt 0.968034 0.068596
vt 0.968034 0.244386
vt 0.440664 0.068596
vt 0.440664 0.244386
vt 0.375041 0.939152
vt 0.219110 0.939254
vt 0.219009 0.783323
vt 0.374940 0.783221
vt 0.218907 0.627392
vt 0.374838 0.627290
vt 0.218806 0.471460
vt 0.374737 0.471359
vt 0.218704 0.315529
vt 0.374635 0.315427
vt 0.063179 0.939355
vt 0.063077 0.783424
vt 0.530973 0.939051
vt 0.530871 0.783120
vt 0.616454 0.068596
vt 0.792244 0.068596
vt 0.792244 0.244386
vt 0.616454 0.244386
vt 0.792244 0.420176
vt 0.616454 0.420176
vt 0.792244 0.595967
vt 0.616454 0.595967
vt 0.792244 0.771757
vt 0.616454 0.771757
vt 0.968034 0.068596
vt 0.968034 0.244386
vt 0.440664 0.068596
vt 0.440664 0.244386
vt 0.616454 0.068596
vt 0.792244 0.068596
vt 0.792244 0.244386
vt 0.616454 0.244386
vt 0.792244 0.420176
vt 0.616454 0.420176
vt 0.792244 0.595967
vt 0.616454 0.595967
vt 0.792244 0.771757
vt 0.616454 0.771757
vt 0.968034 0.068596
vt 0.968034 0.244386
vt 0.440664 0.068596
vt 0.440664 0.244386
vt 0.616454 0.068596
vt 0.792244 0.068596
vt 0.792244 0.244386
vt 0.616454 0.244386
vt 0.792244 0.420176
vt 0.616454 0.420176
vt 0.792244 0.595967
vt 0.616454 0.595967
vt 0.792244 0.771757
vt 0.616454 0.771757
vt 0.968034 0.068596
vt 0.968034 0.244386
vt 0.440664 0.068596
vt 0.440664 0.244386
vt 0.616454 0.068596
vt 0.792244 0.068596
vt 0.792244 0.244386
vt 0.616454 0.244386
vt 0.792244 0.420176
vt 0.616454 0.420176
vt 0.792244 0.595967
vt 0.616454 0.595967
vt 0.792244 0.771757
vt 0.616454 0.771757
vt 0.968034 0.068596
vt 0.968034 0.244386
vt 0.440664 0.068596
vt 0.440664 0.244386
vt 0.616454 0.068596
vt 0.792244 0.068596
vt 0.792244 0.244386
vt 0.616454 0.244386
vt 0.792244 0.420176
vt 0.616454 0.420176
vt 0.792244 0.595967
vt 0.616454 0.595967
vt 0.792244 0.771757
vt 0.616454 0.771757
vt 0.968034 0.068596
vt 0.968034 0.244386
vt 0.440664 0.068596
vt 0.440664 0.244386
vt 0.616454 0.068596
vt 0.792244 0.068596
vt 0.792244 0.244386
vt 0.616454 0.244386
vt 0.792244 0.420176
vt 0.616454 0.420176
vt 0.792244 0.595967
vt 0.616454 0.595967
vt 0.792244 0.771757
vt 0.616454 0.771757
vt 0.968034 0.068596
vt 0.968034 0.244386
vt 0.440664 0.068596
vt 0.440664 0.244386
vt 0.616454 0.068596
vt 0.792244 0.068596
vt 0.792244 0.244386
vt 0.616454 0.244386
vt 0.792244 0.420176
vt 0.616454 0.420176
vt 0.792244 0.595967
vt 0.616454 0.595967
vt 0.792244 0.771757
vt 0.616454 0.771757
vt 0.968034 0.068596
vt 0.968034 0.244386
vt 0.440664 0.068596
vt 0.440664 0.244386
vt 0.616454 0.068596
vt 0.792244 0.068596
vt 0.792244 0.244386
vt 0.616454 0.244386
vt 0.792244 0.420176
vt 0.616454 0.420176
vt 0.792244 0.595967
vt 0.616454 0.595967
vt 0.792244 0.771757
vt 0.616454 0.771757
vt 0.968034 0.068596
vt 0.968034 0.244386
vt 0.440664 0.068596
vt 0.440664 0.244386
vt 0.616454 0.068596
vt 0.792244 0.068596
vt 0.792244 0.244386
vt 0.616454 0.244386
vt 0.792244 0.420176
vt 0.616454 0.420176
vt 0.792244 0.595967
vt 0.616454 0.595967
vt 0.792244 0.771757
vt 0.616454 0.771757
vt 0.968034 0.068596
vt 0.968034 0.244386
vt 0.440664 0.068596
vt 0.440664 0.244386
vt 0.616454 0.068596
vt 0.792244 0.068596
vt 0.792244 0.244386
vt 0.616454 0.244386
vt 0.792244 0.420176
vt 0.616454 0.420176
vt 0.792244 0.595967
vt 0.616454 0.595967
vt 0.792244 0.771757
vt 0.616454 0.771757
vt 0.968034 0.068596
vt 0.968034 0.244386
vt 0.440664 0.068596
vt 0.440664 0.244386
vt 0.616454 0.068596
vt 0.792244 0.068596
vt 0.792244 0.244386
vt 0.616454 0.244386
vt 0.792244 0.420176
vt 0.616454 0.420176
vt 0.792244 0.595967
vt 0.616454 0.595967
vt 0.792244 0.771757
vt 0.616454 0.771757
vt 0.968034 0.068596
vt 0.968034 0.244386
vt 0.440664 0.068596
vt 0.440664 0.244386
vt 0.616454 0.068596
vt 0.792244 0.068596
vt 0.792244 0.244386
vt 0.616454 0.244386
vt 0.792244 0.420176
vt 0.616454 0.420176
vt 0.792244 0.595967
vt 0.616454 0.595967
vt 0.792244 0.771757
vt 0.616454 0.771757
vt 0.968034 0.068596
vt 0.968034 0.244386
vt 0.440664 0.068596
vt 0.440664 0.244386
vt 0.616454 0.068596
vt 0.792244 0.068596
vt 0.792244 0.244386
vt 0.616454 0.244386
vt 0.792244 0.420176
vt 0.616454 0.420176
vt 0.792244 0.595967
vt 0.616454 0.595967
vt 0.792244 0.771757
vt 0.616454 0.771757
vt 0.968034 0.068596
vt 0.968034 0.244386
vt 0.440664 0.068596
vt 0.440664 0.244386
vt 0.616454 0.068596
vt 0.792244 0.068596
vt 0.792244 0.244386
vt 0.616454 0.244386
vt 0.792244 0.420176
vt 0.616454 0.420176
vt 0.792244 0.595967
vt 0.616454 0.595967
vt 0.792244 0.771757
vt 0.616454 0.771757
vt 0.968034 0.068596
vt 0.968034 0.244386
vt 0.440664 0.068596
vt 0.440664 0.244386
vt 0.218806 0.471460
vt 0.219110 0.939254
vt 0.374737 0.471359
vt 0.375041 0.939152
vt 0.218907 0.627392
vt 0.219009 0.783323
vt 0.219009 0.783323
vt 0.374940 0.783221
vt 0.374940 0.783221
vt 0.374838 0.627290
vn 0.000000 0.000000 1.000000
vn 0.000000 0.000000 1.000000
vn 0.000000 0.000000 1.000000
vn 0.000000 0.000000 1.000000
vn 0.000000 1.000000 0.000000
vn 0.000000 1.000000 0.000000
vn 0.000000 1.000000 0.000000
vn 0.000000 1.000000 0.000000
vn 0.000000 0.000000 -1.000000
vn 0.000000 0.000000 -1.000000
vn 0.000000 0.000000 -1.000000
vn 0.000000 0.000000 -1.000000
vn 0.000000 -1.000000 0.000000
vn 0.000000 -1.000000 0.000000
vn 0.000000 -1.000000 0.000000
vn 0.000000 -1.000000 0.000000
vn 1.000000 0.000000 0.000000
vn 1.000000 0.000000 0.000000
vn 1.000000 0.000000 0.000000
vn 1.000000 0.000000 0.000000
vn -1.000000 0.000000 0.000000
vn -1.000000 0.000000 0.000000
vn -1.000000 0.000000 0.000000
vn -1.000000 0.000000 0.000000
vn 0.000000 0.000000 1.000000
vn 0.000000 0.000000 1.000000
vn 0.000000 0.000000 1.000000
vn 0.000000 0.000000 1.000000
vn 0.000000 1.000000 0.000000
vn 0.000000 1.000000 0.000000
vn 0.000000 1.000000 0.000000
vn 0.000000 1.000000 0.000000
vn 0.000000 0.000000 -1.000000
vn 0.000000 0.000000 -1.000000
vn 0.000000 0.000000 -1.000000
vn 0.000000 0.000000 -1.000000
vn 0.000000 -1.000000 0.000000
vn 0.000000 -1.000000 0.000000
vn 0.000000 -1.000000 0.000000
vn 0.000000 -1.000000 0.000000
vn 1.000000 0.000000 0.000000
vn 1.000000 0.000000 0.000000
vn 1.000000 0.000000 0.000000
vn 1.000000 0.000000 0.000000
vn -1.000000 0.000000 0.000000
vn -1.000000 0.000000 0.000000
vn -1.000000 0.000000 0.000000
vn -1.000000 0.000000 0.000000
vn 0.000000 0.000000 1.000000
vn 0.000000 0.000000 1.000000
vn 0.000000 0.000000 1.000000
vn 0.000000 0.000000 1.000000
vn 0.000000 1.000000 0.000000
vn 0.000000 1.000000 0.000000
vn 0.000000 1.000000 0.000000
vn 0.000000 1.000000 0.000000
vn 0.000000 0.000000 -1.000000
vn 0.000000 0.000000 -1.000000
vn 0.000000 0.000000 -1.000000
vn 0.000000 0.000000 -1.000000
vn 0.000000 -1.000000 0.000000
vn 0.000000 -1.000000 0.000000
vn 0.000000 -1.000000 0.000000
vn 0.000000 -1.000000 0.000000
vn 1.000000 0.000000 0.000000
vn 1.000000 0.000000 0.000000
vn 1.000000 0.000000 0.000000
vn 1.000000 0.000000 0.000000
vn -1.000000 0.000000 0.000000
vn -1.000000 0.000000 0.000000
vn -1.000000 0.000000 0.000000
vn -1.000000 0.000000 0.000000
vn 0.000000 0.000000 1.000000
vn 0.000000 0.000000 1.000000
vn 0.000000 0.000000 1.000000
vn 0.000000 0.000000 1.000000
vn 0.000000 1.000000 0.000000
vn 0.000000 1.000000 0.000000
vn 0.000000 1.000000 0.000000
vn 0.000000 1.000000 0.000000
vn 0.000000 0.000000 -1.000000
vn 0.000000 0.000000 -1.000000
vn 0.000000 0.000000 -1.000000
vn 0.000000 0.000000 -1.000000
vn 0.000000 -1.000000 0.000000
vn 0.000000 -1.000000 0.000000
vn 0.000000 -1.000000 0.000000
vn 0.000000 -1.000000 0.000000
vn 1.000000 0.000000 0.000000
vn 1.000000 0.000000 0.000000
vn 1.000000 0.000000 0.000000
vn 1.000000 0.000000 0.000000
vn -1.000000 0.000000 0.000000
vn -1.000000 0.000000 0.000000
vn -1.000000 0.000000 0.000000
vn -1.000000 0.000000 0.000000
vn 0.000000 0.000000 1.000000
vn 0.000000 0.000000 1.000000
vn 0.000000 0.000000 1.000000
vn 0.000000 0.000000 1.000000
vn 0.000000 1.000000 0.000000
vn 0.000000 1.000000 0.000000
vn 0.000000 1.000000 0.000000
vn 0.000000 1.000000 0.000000
vn 0.000000 0.000000 -1.000000
vn 0.000000 0.000000 -1.000000
vn 0.000000 0.000000 -1.000000
vn 0.000000 0.000000 -1.000000
vn 0.000000 -1.000000 0.000000
vn 0.000000 -1.000000 0.000000
vn 0.000000 -1.000000 0.000000
vn 0.000000 -1.000000 0.000000
vn 1.000000 0.000000 0.000000
vn 1.000000 0.000000 0.000000
vn 1.000000 0.000000 0.000000
vn 1.000000 0.000000 0.000000
vn -1.000000 0.000000 0.000000
vn -1.000000 0.000000 0.000000
vn -1.000000 0.000000 0.000000
vn -1.000000 0.000000 0.000000
vn 0.000000 0.000000 1.000000
vn 0.000000 0.000000 1.000000
vn 0.000000 0.000000 1.000000
vn 0.000000 0.000000 1.000000
vn 0.000000 1.000000 0.000000
vn 0.000000 1.000000 0.000000
vn 0.000000 1.000000 0.000000
vn 0.000000 1.000000 0.000000
vn 0.000000 0.000000 -1.000000
vn 0.000000 0.000000 -1.000000
vn 0.000000 0.000000 -1.000000
vn 0.000000 0.000000 -1.000000
vn 0.000000 -1.000000 0.000000
vn 0.000000 -1.000000 0.000000
vn 0.000000 -1.000000 0.000000
vn 0.000000 -1.000000 0.000000
vn 1.000000 0.000000 0.000000
vn 1.000000 0.000000 0.000000
vn 1.000000 0.000000 0.000000
vn 1.000000 0.000000 0.000000
vn -1.000000 0.000000 0.000000
vn -1.000000 0.000000 0.000000
vn -1.000000 0.000000 0.000000
vn -1.000000 0.000000 0.000000
vn 0.000000 0.000000 1.000000
vn 0.000000 0.000000 1.000000
vn 0.000000 0.000000 1.000000
vn 0.000000 0.000000 1.000000
vn 0.000000 1.000000 0.000000
vn 0.000000 1.000000 0.000000
vn 0.000000 1.000000 0.000000
vn 0.000000 1.000000 0.000000
vn 0.000000 0.000000 -1.000000
vn 0.000000 0.000000 -1.000000
vn 0.000000 0.000000 -1.000000
vn 0.000000 0.000000 -1.000000
vn 0.000000 -1.000000 0.000000
vn 0.000000 -1.000000 0.000000
vn 0.000000 -1.000000 0.000000
vn 0.000000 -1.000000 0.000000
vn 1.000000 0.000000 0.000000
vn 1.000000 0.000000 0.000000
vn 1.000000 0.000000 0.000000
vn 1.000000 0.000000 0.000000
vn -1.000000 0.000000 0.000000
vn -1.000000 0.000000 0.000000
vn -1.000000 0.000000 0.000000
vn -1.000000 0.000000 0.000000
vn 0.000000 0.000000 1.000000
vn 0.000000 0.000000 1.000000
vn 0.000000 0.000000 1.000000
vn 0.000000 0.000000 1.000000
vn 0.000000 1.000000 0.000000
vn 0.000000 1.000000 0.000000
vn 0.000000 1.000000 0.000000
vn 0.000000 1.000000 0.000000
vn 0.000000 0.000000 -1.000000
vn 0.000000 0.000000 -1.000000
vn 0.000000 0.000000 -1.000000
vn 0.000000 0.000000 -1.000000
vn 0.000000 -1.000000 0.000000
vn 0.000000 -1.000000 0.000000
vn 0.000000 -1.000000 0.000000
vn 0.000000 -1.000000 0.000000
vn 1.000000 0.000000 0.000000
vn 1.000000 0.000000 0.000000
vn 1.000000 0.000000 0.000000
vn 1.000000 0.000000 0.000000
vn -1.000000 0.000000 0.000000
vn -1.000000 0.000000 0.000000
vn -1.000000 0.000000 0.000000
vn -1.000000 0.000000 0.000000
vn 0.000000 0.000000 1.000000
vn 0.000000 0.000000 1.000000
vn 0.000000 0.000000 1.000000
vn 0.000000 0.000000 1.000000
vn 0.000000 1.000000 0.000000
vn 0.000000 1.000000 0.000000
vn 0.000000 1.000000 0.000000
vn 0.000000 1.000000 0.000000
vn 0.000000 0.000000 -1.000000
vn 0.000000 0.000000 -1.000000
vn 0.000000 0.000000 -1.000000
vn 0.000000 0.000000 -1.000000
vn 0.000000 -1.000000 0.000000
vn 0.000000 -1.000000 0.000000
vn 0.000000 -1.000000 0.000000
vn 0.000000 -1.000000 0.000000
vn 1.000000 0.000000 0.000000
vn 1.000000 0.000000 0.000000
vn 1.000000 0.000000 0.000000
vn 1.000000 0.000000 0.000000
vn -1.000000 0.000000 0.000000
vn -1.000000 0.000000 0.000000
vn -1.000000 0.000000 0.000000
vn -1.000000 0.000000 0.000000
vn 0.000000 0.000000 1.000000
vn 0.000000 0.000000 1.000000
vn 0.000000 0.000000 1.000000
vn 0.000000 0.000000 1.000000
vn 0.000000 1.000000 0.000000
vn 0.000000 1.000000 0.000000
vn 0.000000 1.000000 0.000000
vn 0.000000 1.000000 0.000000
vn 0.000000 0.000000 -1.000000
vn 0.000000 0.000000 -1.000000
vn 0.000000 0.000000 -1.000000
vn 0.000000 0.000000 -1.000000
vn 0.000000 -1.000000 0.000000
vn 0.000000 -1.000000 0.000000
vn 0.000000 -1.000000 0.000000
vn 0.000000 -1.000000 0.000000
vn 1.000000 0.000000 0.000000
vn 1.000000 0.000000 0.000000
vn 1.000000 0.000000 0.000000
vn 1.000000 0.000000 0.000000
vn -1.000000 0.000000 0.000000
vn -1.000000 0.000000 0.000000
vn -1.000000 0.000000 0.000000
vn -1.000000 0.000000 0.000000
vn 0.000000 0.000000 1.000000
vn 0.000000 0.000000 1.000000
vn 0.000000 0.000000 1.000000
vn 0.000000 0.000000 1.000000
vn 0.000000 1.000000 0.000000
vn 0.000000 1.000000 0.000000
vn 0.000000 1.000000 0.000000
vn 0.000000 1.000000 0.000000
vn 0.000000 0.000000 -1.000000
vn 0.000000 0.000000 -1.000000
vn 0.000000 0.000000 -1.000000
vn 0.000000 0.000000 -1.000000
vn 0.000000 -1.000000 0.000000
vn 0.000000 -1.000000 0.000000
vn 0.000000 -1.000000 0.000000
vn 0.000000 -1.000000 0.000000
vn 1.000000 0.000000 0.000000
vn 1.000000 0.000000 0.000000
vn 1.000000 0.000000 0.000000
vn 1.000000 0.000000 0.000000
vn -1.000000 0.000000 0.000000
vn -1.000000 0.000000 0.000000
vn -1.000000 0.000000 0.000000
vn -1.000000 0.000000 0.000000
vn 0.000000 0.000000 1.000000
vn 0.000000 0.000000 1.000000
vn 0.000000 0.000000 1.000000
vn 0.000000 0.000000 1.000000
vn 0.000000 1.000000 0.000000
vn 0.000000 1.000000 0.000000
vn 0.000000 1.000000 0.000000
vn 0.000000 1.000000 0.000000
vn 0.000000 0.000000 -1.000000
vn 0.000000 0.000000 -1.000000
vn 0.000000 0.000000 -1.000000
vn 0.000000 0.000000 -1.000000
vn 0.000000 -1.000000 0.000000
vn 0.000000 -1.000000 0.000000
vn 0.000000 -1.000000 0.000000
vn 0.000000 -1.000000 0.000000
vn 1.000000 0.000000 0.000000
vn 1.000000 0.000000 0.000000
vn 1.000000 0.000000 0.000000
vn 1.000000 0.000000 0.000000
vn -1.000000 0.000000 0.000000
vn -1.000000 0.000000 0.000000
vn -1.000000 0.000000 0.000000
vn -1.000000 0.000000 0.000000
vn 0.000000 0.000000 1.000000
vn 0.000000 0.000000 1.000000
vn 0.000000 0.000000 1.000000
vn 0.000000 0.000000 1.000000
vn 0.000000 1.000000 0.000000
vn 0.000000 1.000000 0.000000
vn 0.000000 1.000000 0.000000
vn 0.000000 1.000000 0.000000
vn 0.000000 0.000000 -1.000000
vn 0.000000 0.000000 -1.000000
vn 0.000000 0.000000 -1.000000
vn 0.000000 0.000000 -1.000000
vn 0.000000 -1.000000 0.000000
vn 0.000000 -1.000000 0.000000
vn 0.000000 -1.000000 0.000000
vn 0.000000 -1.000000 0.000000
vn 1.000000 0.000000 0.000000
vn 1.000000 0.000000 0.000000
vn 1.000000 0.000000 0.000000
vn 1.000000 0.000000 0.000000
vn -1.000000 0.000000 0.000000
vn -1.000000 0.000000 0.000000
vn -1.000000 0.000000 0.000000
vn -1.000000 0.000000 0.000000
vn 0.000000 0.000000 1.000000
vn 0.000000 0.000000 1.000000
vn 0.000000 0.000000 1.000000
vn 0.000000 0.000000 1.000000
vn 0.000000 1.000000 0.000000
vn 0.000000 1.000000 0.000000
vn 0.000000 1.000000 0.000000
vn 0.000000 1.000000 0.000000
vn 0.000000 0.000000 -1.000000
vn 0.000000 0.000000 -1.000000
vn 0.000000 0.000000 -1.000000
vn 0.000000 0.000000 -1.000000
vn 0.000000 -1.000000 0.000000
vn 0.000000 -1.000000 0.000000
vn 0.000000 -1.000000 0.000000
vn 0.000000 -1.000000 0.000000
vn 1.000000 0.000000 0.000000
vn 1.000000 0.000000 0.000000
vn 1.000000 0.000000 0.000000
vn 1.000000 0.000000 0.000000
vn -1.000000 0.000000 0.000000
vn -1.000000 0.000000 0.000000
vn -1.000000 0.000000 0.000000
vn -1.000000 0.000000 0.000000
vn 0.000000 0.000000 1.000000
vn 0.000000 0.000000 1.000000
vn 0.000000 0.000000 1.000000
vn 0.000000 0.000000 1.000000
vn 0.000000 1.000000 0.000000
vn 0.000000 1.000000 0.000000
vn 0.000000 1.000000 0.000000
vn 0.000000 1.000000 0.000000
vn 0.000000 0.000000 -1.000000
vn 0.000000 0.000000 -1.000000
vn 0.000000 0.000000 -1.000000
vn 0.000000 0.000000 -1.000000
vn 0.000000 -1.000000 0.000000
vn 0.000000 -1.000000 0.000000
vn 0.000000 -1.000000 0.000000
vn 0.000000 -1.000000 0.000000
vn 1.000000 0.000000 0.000000
vn 1.000000 0.000000 0.000000
vn 1.000000 0.000000 0.000000
vn 1.000000 0.000000 0.000000
vn -1.000000 0.000000 0.000000
vn -1.000000 0.000000 0.000000
vn -1.000000 0.000000 0.000000
vn -1.000000 0.000000 0.000000
vn 0.000000 0.000000 1.000000
vn 0.000000 0.000000 1.000000
vn 0.000000 0.000000 1.000000
vn 0.000000 0.000000 1.000000
vn 0.000000 1.000000 0.000000
vn 0.000000 1.000000 0.000000
vn 0.000000 1.000000 0.000000
vn 0.000000 1.000000 0.000000
vn 0.000000 0.000000 -1.000000
vn 0.000000 0.000000 -1.000000
vn 0.000000 0.000000 -1.000000
vn 0.000000 0.000000 -1.000000
vn 0.000000 -1.000000 0.000000
vn 0.000000 -1.000000 0.000000
vn 0.000000 -1.000000 0.000000
vn 0.000000 -1.000000 0.000000
vn 1.000000 0.000000 0.000000
vn 1.000000 0.000000 0.000000
vn 1.000000 0.000000 0.000000
vn 1.000000 0.000000 0.000000
vn -1.000000 0.000000 0.000000
vn -1.000000 0.000000 0.000000
vn -1.000000 0.000000 0.000000
vn -1.000000 0.000000 0.000000
s off
g Path
usemtl initialShadingGroup
f 1/1/1 2/2/2 4/4/3 3/3/4
f 3/3/5 4/4/6 6/6/7 5/5/8
f 5/5/9 6/6/10 8/8/11 7/7/12
f 7/7/13 8/8/14 2/10/15 1/9/16
f 2/2/17 8/11/18 6/12/19 4/4/20
f 7/13/21 1/1/22 3/3/23 5/14/24
f 9/228/25 10/16/26 12/230/27 11/232/28
f 11/18/29 12/231/30 14/19/31 13/234/32
f 13/20/33 14/229/34 16/21/35 15/227/36
f 15/22/37 16/225/38 10/23/39 9/24/40
f 10/226/41 16/25/42 14/26/43 12/17/44
f 15/27/45 9/15/46 11/233/47 13/28/48
f 17/29/49 18/30/50 20/31/51 19/32/52
f 19/32/53 20/31/54 22/33/55 21/34/56
f 21/34/57 22/33/58 24/35/59 23/36/60
f 23/36/61 24/35/62 18/37/63 17/38/64
f 18/30/65 24/39/66 22/40/67 20/31/68
f 23/41/69 17/29/70 19/32/71 21/42/72
f 25/43/73 26/44/74 28/45/75 27/46/76
f 27/46/77 28/45/78 30/47/79 29/48/80
f 29/48/81 30/47/82 32/49/83 31/50/84
f 31/50/85 32/49/86 26/51/87 25/52/88
f 26/44/89 32/53/90 30/54/91 28/45/92
f 31/55/93 25/43/94 27/46/95 29/56/96
f 33/57/97 34/58/98 36/59/99 35/60/100
f 35/60/101 36/59/102 38/61/103 37/62/104
f 37/62/105 38/61/106 40/63/107 39/64/108
f 39/64/109 40/63/110 34/65/111 33/66/112
f 34/58/113 40/67/114 38/68/115 36/59/116
f 39/69/117 33/57/118 35/60/119 37/70/120
f 41/71/121 42/72/122 44/73/123 43/74/124
f 43/74/125 44/73/126 46/75/127 45/76/128
f 45/76/129 46/75/130 48/77/131 47/78/132
f 47/78/133 48/77/134 42/79/135 41/80/136
f 42/72/137 48/81/138 46/82/139 44/73/140
f 47/83/141 41/71/142 43/74/143 45/84/144
f 49/85/145 50/86/146 52/87/147 51/88/148
f 51/88/149 52/87/150 54/89/151 53/90/152
f 53/90/153 54/89/154 56/91/155 55/92/156
f 55/92/157 56/91/158 50/93/159 49/94/160
f 50/86/161 56/95/162 54/96/163 52/87/164
f 55/97/165 49/85/166 51/88/167 53/98/168
f 57/99/169 58/100/170 60/101/171 59/102/172
f 59/102/173 60/101/174 62/103/175 61/104/176
f 61/104/177 62/103/178 64/105/179 63/106/180
f 63/106/181 64/105/182 58/107/183 57/108/184
f 58/100/185 64/109/186 62/110/187 60/101/188
f 63/111/189 57/99/190 59/102/191 61/112/192
f 65/113/193 66/114/194 68/115/195 67/116/196
f 67/116/197 68/115/198 70/117/199 69/118/200
f 69/118/201 70/117/202 72/119/203 71/120/204
f 71/120/205 72/119/206 66/121/207 65/122/208
f 66/114/209 72/123/210 70/124/211 68/115/212
f 71/125/213 65/113/214 67/116/215 69/126/216
f 73/127/217 74/128/218 76/129/219 75/130/220
f 75/130/221 76/129/222 78/131/223 77/132/224
f 77/132/225 78/131/226 80/133/227 79/134/228
f 79/134/229 80/133/230 74/135/231 73/136/232
f 74/128/233 80/137/234 78/138/235 76/129/236
f 79/139/237 73/127/238 75/130/239 77/140/240
f 81/141/241 82/142/242 84/143/243 83/144/244
f 83/144/245 84/143/246 86/145/247 85/146/248
f 85/146/249 86/145/250 88/147/251 87/148/252
f 87/148/253 88/147/254 82/149/255 81/150/256
f 82/142/257 88/151/258 86/152/259 84/143/260
f 87/153/261 81/141/262 83/144/263 85/154/264
f 89/155/265 90/156/266 92/157/267 91/158/268
f 91/158/269 92/157/270 94/159/271 93/160/272
f 93/160/273 94/159/274 96/161/275 95/162/276
f 95/162/277 96/161/278 90/163/279 89/164/280
f 90/156/281 96/165/282 94/166/283 92/157/284
f 95/167/285 89/155/286 91/158/287 93/168/288
f 97/169/289 98/170/290 100/171/291 99/172/292
f 99/172/293 100/171/294 102/173/295 101/174/296
f 101/174/297 102/173/298 104/175/299 103/176/300
f 103/176/301 104/175/302 98/177/303 97/178/304
f 98/170/305 104/179/306 102/180/307 100/171/308
f 103/181/309 97/169/310 99/172/311 101/182/312
f 105/183/313 106/184/314 108/185/315 107/186/316
f 107/186/317 108/185/318 110/187/319 109/188/320
f 109/188/321 110/187/322 112/189/323 111/190/324
f 111/190/325 112/189/326 106/191/327 105/192/328
f 106/184/329 112/193/330 110/194/331 108/185/332
f 111/195/333 105/183/334 107/186/335 109/196/336
f 113/197/337 114/198/338 116/199/339 115/200/340
f 115/200/341 116/199/342 118/201/343 117/202/344
f 117/202/345 118/201/346 120/203/347 119/204/348
f 119/204/349 120/203/350 114/205/351 113/206/352
f 114/198/353 120/207/354 118/208/355 116/199/356
f 119/209/357 113/197/358 115/200/359 117/210/360
f 121/211/361 122/212/362 124/213/363 123/214/364
f 123/214/365 124/213/366 126/215/367 125/216/368
f 125/216/369 126/215/370 128/217/371 127/218/372
f 127/218/373 128/217/374 122/219/375 121/220/376
f 122/212/377 128/221/378 126/222/379 124/213/380
f 127/223/381 121/211/382 123/214/383 125/224/384
