# This file uses centimeters as units for non-parametric coordinates.

mtllib paver.mtl
g default
v -1.787989 -0.001230 1.787989
v 1.787989 -0.001230 1.787989
v -1.787989 -0.001230 -1.787989
v 1.787989 -0.001230 -1.787989
v -1.787989 0.091926 1.787989
v -1.694851 0.185064 1.694851
v 1.694851 0.185064 1.694851
v 1.787989 0.091926 1.787989
v -1.694851 0.185064 -1.694851
v -1.787989 0.091926 -1.787989
v 1.694851 0.185064 -1.694851
v 1.787989 0.091926 -1.787989
vt 0.754972 0.290647
vt 0.756312 0.959149
vt 0.756319 0.726635
vt 0.669654 0.460309
vt 0.523460 0.955222
vt 0.245410 0.289499
vt 0.329963 0.459544
vt 0.419316 0.455322
vt 0.419678 0.294316
vt 0.580684 0.294678
vt 0.670037 0.290456
vt 0.523798 0.959143
vt 0.245793 0.119645
vt 0.330728 0.119837
vt 0.330346 0.289691
vt 0.244645 0.629207
vt 0.245028 0.459353
vt 0.329581 0.629398
vt 0.580322 0.455684
vt 0.523466 0.730537
vt 0.298781 0.730530
vt 0.298775 0.955215
vt 0.523804 0.726628
vt 0.754590 0.460501
vn 0.000000 -1.000000 0.000000
vn 0.000000 -1.000000 0.000000
vn 0.000000 -1.000000 0.000000
vn 0.000000 -1.000000 0.000000
vn -0.707107 0.707106 0.000000
vn -0.707107 0.707106 0.000000
vn -0.707107 0.707106 0.000000
vn -0.707107 0.707106 0.000000
vn 0.000000 0.707107 0.707107
vn 0.000000 0.707107 0.707107
vn 0.000000 0.707107 0.707107
vn 0.000000 0.707107 0.707107
vn 0.707107 0.707106 0.000000
vn 0.707107 0.707106 0.000000
vn 0.707107 0.707106 0.000000
vn 0.707107 0.707106 0.000000
vn 0.000000 0.707107 -0.707107
vn 0.000000 0.707107 -0.707107
vn 0.000000 0.707107 -0.707107
vn 0.000000 0.707107 -0.707107
vn 0.000000 0.000000 1.000000
vn 0.000000 0.000000 1.000000
vn 0.000000 0.000000 1.000000
vn 0.000000 0.000000 1.000000
vn 0.000000 1.000000 0.000000
vn 0.000000 1.000000 0.000000
vn 0.000000 1.000000 0.000000
vn 0.000000 1.000000 0.000000
vn 0.000000 0.000000 -1.000000
vn 0.000000 0.000000 -1.000000
vn 0.000000 0.000000 -1.000000
vn 0.000000 0.000000 -1.000000
vn 1.000000 0.000000 0.000000
vn 1.000000 0.000000 0.000000
vn 1.000000 0.000000 0.000000
vn 1.000000 0.000000 0.000000
vn -1.000000 0.000000 0.000000
vn -1.000000 0.000000 0.000000
vn -1.000000 0.000000 0.000000
vn -1.000000 0.000000 0.000000
s off
g pCube1
usemtl initialShadingGroup
f 3/12/1 4/23/2 2/3/3 1/2/4
f 5/7/5 6/8/6 9/19/7 10/4/8
f 6/8/9 5/7/10 8/15/11 7/9/12
f 7/9/13 8/15/14 12/11/15 11/10/16
f 10/4/17 9/19/18 11/10/19 12/11/20
f 1/17/21 2/6/22 8/15/23 5/7/24
f 6/22/25 7/21/26 11/20/27 9/5/28
f 10/4/29 12/11/30 4/1/31 3/24/32
f 2/6/33 4/13/34 12/14/35 8/15/36
f 3/16/37 1/17/38 5/7/39 10/18/40
