# This file uses centimeters as units for non-parametric coordinates.

mtllib 300helmet.mtl
g default
v -0.850074 1.337126 0.111647
v 1.531775 0.637284 0.100849
v -0.850074 1.337126 -0.111647
v 1.551837 0.631703 -0.121472
v 0.933132 1.548085 0.097035
v 0.946587 1.548058 -0.125854
v 1.201475 1.195299 0.057035
v 1.221537 1.189717 -0.165287
v 0.283095 1.743944 0.111647
v 0.283095 1.743944 -0.111647
v -1.601790 2.129745 0.055903
v -1.559886 2.085562 0.111647
v -0.054535 2.685082 0.055830
v -0.049901 2.627581 0.111647
v -1.559886 2.085562 -0.111647
v -1.601790 2.129745 -0.055903
v -0.049869 2.627741 -0.111647
v -0.054798 2.685128 -0.055937
v 1.422363 2.425330 -0.041333
v 1.397467 2.374170 -0.098712
v 2.073068 1.703166 -0.045434
v 2.029951 1.673009 -0.104469
v 1.383468 2.373380 0.124151
v 1.415634 2.425344 0.070129
v 2.009104 1.678121 0.117793
v 2.063043 1.705955 0.065663
v 2.495977 0.679516 0.161508
v 2.560997 0.680766 0.110269
v 2.571038 0.677972 -0.001006
v 2.514934 0.673887 -0.060882
v 1.056219 0.378588 0.603948
v -0.314527 0.895152 0.803955
v 0.438924 1.200811 0.803955
v -0.314526 0.895152 -0.803955
v 0.438924 1.200811 -0.803955
v 1.056219 0.378588 -0.603948
v -0.555817 1.219312 0.000000
v 0.291400 1.611735 0.000000
v 1.549324 0.462547 -0.015938
v 1.538162 0.340414 -0.488367
v 0.291400 1.611735 -0.472429
v -0.555817 1.219312 -0.472429
v -0.555817 1.219312 0.472429
v 0.291400 1.611735 0.472429
v 1.538162 0.343609 0.456491
v 0.816065 1.379626 0.472429
v 0.819473 1.370133 0.000000
v 0.816065 1.379626 -0.472429
v 0.425818 0.368157 0.944858
v 0.401199 0.791653 0.472429
v 0.375333 0.863702 0.000000
v 0.401199 0.791653 -0.472429
v 0.425818 0.368157 -0.944858
v -0.060732 1.047981 -0.803955
v -0.255140 1.415523 -0.472429
v -0.255140 1.415523 0.000000
v -0.255140 1.415523 0.472429
v -0.060732 1.047981 0.803955
v -0.355800 0.025384 -0.913376
v -0.076299 -0.000405 -0.944858
v -0.364347 0.807147 -0.472429
v -0.609927 0.887799 -0.641996
v -0.734267 1.069620 0.000000
v -0.210553 0.943024 0.000000
v -0.678027 0.912964 0.509921
v -0.133034 0.800914 0.472429
v 0.105420 -0.000405 0.923000
v -0.109937 0.025384 0.913376
v 0.283095 1.743944 0.111647
v 0.283095 1.743944 -0.111647
v 0.946587 1.548058 -0.125854
v 0.933132 1.548085 0.097035
v 1.221537 1.189717 -0.165287
v 1.201475 1.195299 0.057035
v 1.551837 0.631703 -0.121472
v 1.531775 0.637284 0.100849
v 1.043203 1.083104 -0.178703
v 1.023141 1.088686 0.043618
v 1.373503 0.525090 -0.134888
v 1.353441 0.530671 0.087433
v -0.361680 1.141167 -0.111647
v 0.353446 1.547984 -0.111647
v 0.353446 1.547984 0.111647
v -0.361680 1.141167 0.111647
v 1.382762 0.522514 -0.237493
v 1.052462 1.080529 -0.281308
v 1.013882 1.091262 0.146223
v 1.344182 0.533247 0.190038
v 0.353446 1.547984 -0.214701
v 0.353446 1.547984 0.214701
v 1.186666 1.160759 -0.271212
v 1.226167 1.188429 -0.216594
v 1.516966 0.602745 -0.227397
v 1.556467 0.630415 -0.172780
v 1.148086 1.171492 0.156320
v 1.196845 1.196587 0.108342
v 1.478386 0.613478 0.200134
v 1.527145 0.638572 0.152157
v -0.850074 1.337126 -0.163179
v 0.300504 1.695452 -0.214701
v 0.283095 1.743944 -0.163179
v -0.850074 1.337126 0.163179
v 0.300504 1.695452 0.214701
v 0.283095 1.743944 0.163179
v -0.333071 1.157442 -0.214701
v -0.361680 1.141167 -0.188943
v -0.741561 1.321342 -0.214701
v -0.814068 1.322679 -0.188943
v -0.361680 1.141167 0.188943
v -0.333071 1.157442 0.214701
v -0.741561 1.321342 0.214701
v -0.814068 1.322679 0.188943
vt 0.904693 0.503914
vt 0.904693 0.783791
vt 0.822629 0.783791
vt 0.834724 0.783791
vt 0.822629 0.503914
vt 0.834724 0.503914
vt 0.752660 0.783791
vt 0.752660 0.503914
vt 0.822629 0.503914
vt 0.822629 0.783791
vt 0.834724 0.503914
vt 0.904693 0.783791
vt 0.752660 0.783791
vt 0.904693 0.503914
vt 0.834724 0.783791
vt 0.752660 0.503914
vt 0.380293 0.677444
vt 0.357640 0.676979
vt 0.353632 0.633260
vt 0.376227 0.634483
vt 0.260511 0.795232
vt 0.672615 0.600752
vt 0.283205 0.891200
vt 0.277540 0.896865
vt 0.266177 0.896865
vt 0.260511 0.891200
vt 0.612709 0.506997
vt 0.672615 0.506997
vt 0.598883 0.600752
vt 0.591971 0.593840
vt 0.591971 0.506997
vt 0.693353 0.506997
vt 0.693353 0.593840
vt 0.686441 0.600752
vt 0.867072 0.693076
vt 0.807427 0.689848
vt 0.819182 0.519004
vt 0.878827 0.522232
vt 0.779899 0.688358
vt 0.791654 0.517514
vt 0.906355 0.523722
vt 0.894600 0.694566
vt 0.347000 0.849396
vt 0.335672 0.849628
vt 0.336126 0.758582
vt 0.347417 0.757971
vt 0.330181 0.845762
vt 0.330828 0.757772
vt 0.331592 0.643417
vt 0.342901 0.642805
vt 0.352832 0.845357
vt 0.353417 0.756567
vt 0.326385 0.645531
vt 0.348987 0.644341
vt 0.138650 0.276719
vt 0.070527 0.278174
vt 0.072825 0.102386
vt 0.140948 0.117984
vt 0.070527 0.335238
vt 0.138650 0.335238
vt 0.206773 0.278174
vt 0.209071 0.101952
vt 0.206773 0.335238
vt 0.616278 0.818274
vt 0.616278 0.878180
vt 0.560420 0.878180
vt 0.560420 0.818274
vt 0.616278 0.892006
vt 0.602456 0.905828
vt 0.560420 0.905828
vt 0.560420 0.790626
vt 0.602456 0.790626
vt 0.616278 0.804448
vt 0.915445 0.876564
vt 0.903691 0.705720
vt 0.917456 0.704975
vt 0.929210 0.875819
vt 0.943864 0.872413
vt 0.932109 0.701569
vt 0.881172 0.702740
vt 0.892927 0.873584
vt 0.879161 0.874329
vt 0.867407 0.703485
vt 0.866290 0.872413
vt 0.854535 0.701569
vt 0.281757 0.781955
vt 0.259162 0.780228
vt 0.265320 0.686654
vt 0.271405 0.681147
vt 0.282714 0.682012
vt 0.287922 0.688274
vt 0.814521 0.724450
vt 0.814521 0.506997
vt 0.874428 0.506997
vt 0.874428 0.724450
vt 0.793784 0.724450
vt 0.786873 0.715750
vt 0.786873 0.506997
vt 0.902076 0.506997
vt 0.902076 0.715750
vt 0.895165 0.724450
vt 0.793784 0.822226
vt 0.786873 0.804039
vt 0.902076 0.804039
vt 0.895165 0.822226
vt 0.316190 0.775182
vt 0.304831 0.775158
vt 0.303378 0.643448
vt 0.314706 0.642805
vt 0.304824 0.942232
vt 0.316187 0.942232
vt 0.299158 0.776689
vt 0.297888 0.648310
vt 0.321852 0.776681
vt 0.320538 0.646943
vt 0.299158 0.939741
vt 0.321852 0.939741
vt 0.767564 0.296235
vt 0.767564 0.228112
vt 0.851298 0.228112
vt 0.851298 0.296235
vt 0.717197 0.228112
vt 0.717197 0.296235
vt 0.767564 0.159988
vt 0.851298 0.159988
vt 0.776040 0.344040
vt 0.851298 0.344040
vt 0.717197 0.159988
vt 0.734150 0.344040
vt 0.693701 0.320686
vt 0.685685 0.228112
vt 0.776040 0.112183
vt 0.851298 0.112183
vt 0.911195 0.296235
vt 0.734150 0.112183
vt 0.685685 0.154582
vt 0.911195 0.159988
vt 0.804854 0.282526
vt 0.804854 0.206876
vt 0.872977 0.206876
vt 0.872977 0.278929
vt 0.736731 0.310018
vt 0.736731 0.206876
vt 0.802556 0.067091
vt 0.870679 0.074401
vt 0.941101 0.224169
vt 0.937949 0.285610
vt 0.804854 0.347434
vt 0.878384 0.347434
vt 0.668608 0.310272
vt 0.668608 0.224169
vt 0.734433 0.074557
vt 0.712280 0.339418
vt 0.891942 0.138105
vt 0.717766 0.138105
vt 0.838159 0.728205
vt 0.842719 0.787851
vt 0.788023 0.791450
vt 0.783464 0.731805
vt 0.843771 0.801616
vt 0.831288 0.816269
vt 0.790128 0.818978
vt 0.781359 0.704277
vt 0.822520 0.701569
vt 0.837106 0.714440
vt 0.769543 0.734581
vt 0.764983 0.794226
vt 0.710288 0.790627
vt 0.714848 0.730982
vt 0.763931 0.807992
vt 0.749344 0.820863
vt 0.708184 0.818155
vt 0.716952 0.703454
vt 0.758113 0.706163
vt 0.770595 0.720816
vt 0.704809 0.830008
vt 0.704809 0.506997
vt 0.718635 0.506997
vt 0.718635 0.830008
vt 0.732457 0.804039
vt 0.725547 0.822226
vt 0.732457 0.506997
vt 0.773489 0.506997
vt 0.773489 0.830008
vt 0.759664 0.830008
vt 0.759664 0.506997
vt 0.752752 0.822226
vt 0.745842 0.804039
vt 0.745842 0.506997
vt 0.203893 0.559046
vt 0.267879 0.630465
vt 0.311184 0.616911
vt 0.292587 0.523077
vt 0.129767 0.687426
vt 0.226494 0.685918
vt 0.376421 0.604479
vt 0.405725 0.510798
vt 0.226494 0.808282
vt 0.129759 0.850478
vt 0.264969 0.630799
vt 0.201430 0.559300
vt 0.290220 0.522878
vt 0.308688 0.616804
vt 0.223446 0.687538
vt 0.127472 0.689038
vt 0.402446 0.510798
vt 0.373408 0.604372
vt 0.127479 0.852098
vt 0.223446 0.809902
vt 0.615448 0.249769
vt 0.499478 0.216859
vt 0.470178 0.130795
vt 0.611844 0.174511
vt 0.479062 0.306271
vt 0.465069 0.278300
vt 0.607072 0.291659
vt 0.441949 0.067091
vt 0.617737 0.114614
vt 0.662822 0.308612
vt 0.627200 0.340124
vt 0.378201 0.219002
vt 0.262231 0.251912
vt 0.265835 0.176653
vt 0.407501 0.132938
vt 0.270607 0.293802
vt 0.403756 0.305105
vt 0.386638 0.341782
vt 0.259942 0.116757
vt 0.436164 0.069390
vt 0.257212 0.334251
vt 0.214857 0.310755
vt 0.416812 0.167351
vt 0.453488 0.150232
vt 0.453742 0.273865
vt 0.424342 0.296777
vt 0.609518 0.033779
vt 0.678023 0.075540
vt 0.671342 0.195911
vt 0.643371 0.181918
vt 0.650093 0.517514
vt 0.682911 0.688358
vt 0.641751 0.696451
vt 0.608933 0.525607
vt 0.768394 0.525607
vt 0.735576 0.696451
vt 0.694416 0.688358
vt 0.727234 0.517514
vt 0.646432 0.712667
vt 0.568016 0.800955
vt 0.568016 0.503914
vt 0.610051 0.503914
vt 0.738754 0.503914
vt 0.738754 0.800955
vt 0.660338 0.712667
vt 0.696718 0.503914
vt 0.381830 0.735657
vt 0.359136 0.735657
vt 0.357692 0.694135
vt 0.380345 0.694599
vt 0.902076 0.715750
vt 0.895165 0.724450
vt 0.793784 0.724450
vt 0.786873 0.715750
vt 0.759664 0.830008
vt 0.759664 0.506997
vt 0.718635 0.506997
vt 0.718635 0.830008
vt 0.879161 0.874329
vt 0.867407 0.703485
vt 0.917456 0.704975
vt 0.929210 0.875819
vt 0.560420 0.878180
vt 0.874428 0.506997
vt 0.874428 0.724450
vt 0.672615 0.506997
vt 0.752660 0.783791
vt 0.616278 0.878180
vt 0.672615 0.600752
vt 0.283205 0.795232
vt 0.612709 0.506997
vt 0.814521 0.724450
vt 0.814521 0.506997
vt 0.560420 0.818274
vt 0.616278 0.818274
vt 0.752660 0.503914
vt 0.612709 0.600752
vt 0.612709 0.600752
vt 0.710288 0.790627
vt 0.878827 0.522232
vt 0.867072 0.693076
vt 0.783464 0.731805
vt 0.904693 0.783791
vt 0.764983 0.794226
vt 0.838159 0.728205
vt 0.834724 0.783791
vt 0.788023 0.791450
vt 0.807427 0.689848
vt 0.819182 0.519004
vt 0.714848 0.730982
vt 0.769543 0.734581
vt 0.904693 0.503914
vt 0.834724 0.503914
vt 0.842719 0.787851
vt 0.904693 0.783791
vt 0.904693 0.503914
vt 0.834724 0.783791
vt 0.834724 0.503914
vt 0.752660 0.783791
vt 0.822629 0.783791
vt 0.822629 0.503914
vt 0.822629 0.783791
vt 0.752660 0.503914
vt 0.822629 0.503914
vn -0.796355 -0.602558 -0.052361
vn -0.796355 -0.602558 -0.052361
vn -0.796355 -0.602558 -0.052361
vn -0.796355 -0.602558 -0.052361
vn 0.041928 -0.998704 0.028854
vn 0.041928 -0.998704 0.028854
vn 0.041928 -0.998704 0.028854
vn 0.041928 -0.998704 0.028854
vn 0.041928 -0.998704 0.028854
vn 0.041928 -0.998704 0.028854
vn -0.598925 -0.800805 -0.000000
vn -0.598925 -0.800805 -0.000000
vn -0.725581 -0.688137 -0.000000
vn -0.725581 -0.688137 -0.000000
vn -0.725581 -0.688137 -0.000000
vn -0.725581 -0.688137 -0.000000
vn -0.285961 -0.958203 -0.008566
vn -0.285961 -0.958203 -0.008566
vn -0.285961 -0.958203 -0.008566
vn -0.285961 -0.958203 -0.008566
vn -0.856531 -0.512057 -0.064438
vn -0.856531 -0.512057 -0.064438
vn -0.856531 -0.512057 -0.064438
vn -0.856531 -0.512057 -0.064438
vn 0.494465 -0.869198 0.000000
vn 0.494465 -0.869198 0.000000
vn 0.494465 -0.869198 -0.000000
vn 0.494465 -0.869198 -0.000000
vn -0.239012 0.665935 0.706685
vn -0.239012 0.665935 0.706685
vn -0.071708 0.687797 0.722353
vn -0.071751 0.687794 0.722351
vn 0.270657 0.610625 0.744232
vn 0.279072 0.605696 0.745152
vn -0.238981 0.665606 -0.707005
vn -0.238981 0.665606 -0.707005
vn -0.063143 0.695953 -0.715306
vn -0.063901 0.695870 -0.715319
vn 0.296249 0.643296 -0.705979
vn 0.305588 0.639178 -0.705739
vn 0.628015 0.396699 -0.669497
vn 0.627911 0.396850 -0.669506
vn 0.686365 0.304566 -0.660411
vn 0.686365 0.304566 -0.660411
vn 0.542724 0.378286 0.749900
vn 0.546442 0.371820 0.750434
vn 0.577823 0.314058 0.753318
vn 0.577823 0.314059 0.753318
vn -0.006533 -0.031607 0.999479
vn -0.006848 -0.032815 0.999438
vn -0.045915 -0.015416 0.998826
vn -0.048042 -0.012886 0.998762
vn 0.742413 0.668258 0.047474
vn 0.742413 0.668258 0.047474
vn 0.831050 0.552975 0.059793
vn 0.836162 0.545131 0.060545
vn 0.007404 0.032402 -0.999448
vn 0.007095 0.031296 -0.999485
vn 0.048194 0.012794 -0.998756
vn 0.046058 0.015342 -0.998821
vn 0.001358 0.007782 -0.999969
vn 0.000851 0.004878 -0.999988
vn -0.098770 0.995106 0.002857
vn -0.096407 0.995338 0.002878
vn 0.173546 0.984812 0.005169
vn 0.173546 0.984812 0.005169
vn -0.000732 -0.004832 0.999988
vn -0.001175 -0.007749 0.999969
vn -0.073511 0.017479 0.997141
vn -0.073511 0.017479 0.997141
vn 0.896111 0.438298 0.069861
vn 0.896111 0.438298 0.069861
vn 0.073521 -0.017475 -0.997141
vn 0.073521 -0.017475 -0.997141
vn 0.000000 0.000000 -1.000000
vn 0.000000 0.000000 -1.000000
vn -0.337855 0.941198 0.000592
vn -0.337855 0.941198 0.000592
vn -0.000000 -0.000000 1.000000
vn -0.000000 -0.000000 1.000000
vn 0.067139 0.127369 0.989580
vn 0.102883 0.133072 0.985752
vn 0.264403 0.156864 0.951570
vn 0.264403 0.156864 0.951570
vn -0.371799 0.819854 -0.435436
vn -0.420294 0.907388 0.000000
vn -0.337893 0.941185 0.000000
vn -0.293316 0.840903 -0.454805
vn 0.102752 0.148297 -0.983590
vn 0.056687 0.145154 -0.987784
vn 0.264403 0.156864 -0.951570
vn 0.264403 0.156864 -0.951570
vn -0.345483 -0.938425 -0.000034
vn -0.335315 -0.878897 0.339269
vn -0.337875 -0.907364 0.250061
vn -0.345453 -0.938431 0.003115
vn 0.410351 0.911928 0.000000
vn 0.696468 0.717588 -0.000218
vn 0.649636 0.604268 -0.461338
vn 0.403825 0.900164 -0.163186
vn -0.371799 0.819854 0.435436
vn -0.293316 0.840903 0.454805
vn 0.403825 0.900164 0.163186
vn 0.654854 0.599337 0.460392
vn -0.340107 -0.877653 -0.337715
vn -0.341966 -0.906137 -0.248948
vn -0.293121 -0.679096 0.672985
vn -0.293121 -0.679096 0.672985
vn 0.406477 0.303983 -0.861609
vn -0.245372 0.568049 -0.785565
vn -0.195130 0.584872 -0.787305
vn -0.245372 0.568049 0.785565
vn -0.195130 0.584872 0.787305
vn 0.426668 0.306215 0.850991
vn -0.303537 -0.690413 -0.656655
vn -0.303537 -0.690413 -0.656655
vn 0.446440 0.221023 0.867087
vn 0.749783 0.512290 0.418789
vn 0.801360 0.598180 -0.001773
vn 0.743458 0.514405 -0.427385
vn 0.422481 0.216974 -0.880018
vn -0.094036 0.132760 -0.986677
vn -0.094036 0.132760 -0.986677
vn -0.094037 0.132760 -0.986677
vn -0.489409 0.760337 -0.427043
vn -0.335587 0.533099 -0.776651
vn -0.546498 0.837461 0.000000
vn -0.489409 0.760337 0.427043
vn -0.335587 0.533099 0.776651
vn -0.102928 0.098136 0.989836
vn -0.102928 0.098136 0.989836
vn -0.102928 0.098136 0.989836
vn -0.312339 -0.469291 0.825961
vn -0.312339 -0.469291 0.825961
vn -0.312339 -0.469291 0.825961
vn -0.312339 -0.469291 0.825961
vn -0.305313 -0.913609 0.268519
vn -0.305313 -0.913609 0.268519
vn -0.261192 -0.963614 -0.056801
vn -0.266701 -0.963436 -0.025728
vn -0.219208 -0.941371 -0.256454
vn -0.219208 -0.941371 -0.256454
vn -0.121007 -0.493357 -0.861369
vn 0.032096 -0.524955 -0.850525
vn 0.063407 -0.529845 -0.845721
vn -0.121007 -0.493357 -0.861369
vn -0.794429 0.431008 -0.427919
vn -0.574775 0.295751 -0.762998
vn -0.853081 0.521279 -0.022842
vn -0.853522 0.520385 -0.026455
vn -0.712084 0.171423 0.680845
vn -0.781860 0.297081 0.548122
vn -0.471799 0.234833 -0.849858
vn -0.471799 0.234834 -0.849858
vn -0.626433 0.053261 0.777654
vn -0.626433 0.053261 0.777654
vn 0.250677 -0.547699 -0.798240
vn 0.250677 -0.547699 -0.798240
vn -0.077039 -0.974148 -0.212368
vn -0.077039 -0.974148 -0.212368
vn -0.077039 -0.974148 -0.212368
vn -0.077039 -0.974148 -0.212368
vn -0.068222 -0.972378 0.223219
vn -0.068222 -0.972378 0.223219
vn -0.068222 -0.972378 0.223219
vn -0.068222 -0.972378 0.223219
vn 0.160170 -0.575078 0.802266
vn 0.160170 -0.575078 0.802266
vn 0.160170 -0.575078 0.802266
vn 0.160170 -0.575078 0.802266
vn 0.000000 0.000000 0.000000
vn 0.000000 0.000000 0.000000
vn 0.000000 0.000000 0.000000
vn 0.000000 0.000000 0.000000
vn 0.000000 0.000000 0.000000
vn 0.000000 0.000000 0.000000
vn 0.000000 0.000000 0.000000
vn 0.000000 0.000000 0.000000
vn 0.000000 0.000000 0.000000
vn 0.000000 0.000000 0.000000
vn 0.000000 0.000000 0.000000
vn 0.000000 0.000000 0.000000
vn 0.000000 0.000000 0.000000
vn 0.000000 0.000000 0.000000
vn 0.000000 0.000000 0.000000
vn 0.000000 0.000000 0.000000
vn 0.000000 0.000000 0.000000
vn 0.000000 0.000000 0.000000
vn 0.000000 0.000000 0.000000
vn 0.000000 0.000000 0.000000
vn 0.000000 0.000000 0.000000
vn 0.000000 0.000000 0.000000
vn 0.000000 0.000000 0.000000
vn 0.000000 0.000000 0.000000
vn 0.000000 0.000000 0.000000
vn 0.000000 0.000000 0.000000
vn 0.000000 0.000000 0.000000
vn 0.000000 0.000000 0.000000
vn 0.000000 0.000000 0.000000
vn 0.000000 0.000000 0.000000
vn 0.000000 0.000000 0.000000
vn 0.000000 0.000000 0.000000
vn -0.508215 0.858588 -0.067415
vn -0.508215 0.858588 -0.067415
vn -0.508215 0.858588 -0.067415
vn -0.508215 0.858588 -0.067415
vn 0.089846 -0.024995 -0.995642
vn 0.089846 -0.024995 -0.995642
vn 0.089846 -0.024995 -0.995642
vn 0.089846 -0.024995 -0.995642
vn 0.508215 -0.858588 0.067415
vn 0.508215 -0.858588 0.067414
vn 0.508215 -0.858588 0.067414
vn 0.508215 -0.858588 0.067415
vn -0.089846 0.024995 0.995642
vn -0.089846 0.024995 0.995642
vn -0.089846 0.024995 0.995642
vn -0.089846 0.024995 0.995642
vn -0.000000 -0.000000 -1.000000
vn -0.000000 -0.000000 -1.000000
vn -0.000000 -0.000000 -1.000000
vn -0.000000 -0.000000 -1.000000
vn 0.941185 0.337892 0.000000
vn 0.941185 0.337892 -0.000000
vn 0.941185 0.337892 -0.000000
vn 0.941185 0.337892 0.000000
vn -0.000000 -0.000000 1.000000
vn -0.000000 -0.000000 1.000000
vn -0.000000 -0.000000 1.000000
vn -0.000000 -0.000000 1.000000
vn -0.372376 -0.928082 0.000000
vn -0.372376 -0.928082 -0.000000
vn 0.856531 0.512057 0.064436
vn 0.856531 0.512057 0.064436
vn 0.856531 0.512057 0.064436
vn 0.856531 0.512057 0.064436
vn 0.508214 -0.858588 0.067417
vn 0.508214 -0.858588 0.067417
vn 0.508214 -0.858588 0.067417
vn -0.856531 -0.512057 -0.064438
vn -0.856531 -0.512057 -0.064438
vn -0.508215 0.858588 -0.067414
vn -0.508215 0.858588 -0.067414
vn -0.508215 0.858588 -0.067414
vn 0.856531 0.512057 0.064438
vn 0.856531 0.512057 0.064438
vn 0.856531 0.512057 0.064438
vn 0.856531 0.512057 0.064438
vn -0.508215 0.858588 -0.067415
vn -0.508215 0.858588 -0.067415
vn -0.508215 0.858588 -0.067415
vn -0.856531 -0.512057 -0.064437
vn -0.856531 -0.512057 -0.064437
vn 0.508214 -0.858588 0.067414
vn 0.508214 -0.858588 0.067414
vn 0.508214 -0.858588 0.067414
vn -0.337893 0.941185 0.000000
vn -0.337893 0.941185 0.000000
vn -0.337893 0.941185 0.000000
vn -0.337893 0.941185 0.000000
vn 0.941185 0.337892 0.000000
vn 0.941185 0.337892 0.000000
vn 0.941185 0.337892 0.000000
vn 0.494465 -0.869198 0.000000
vn 0.494465 -0.869198 0.000000
vn 0.494465 -0.869198 0.000000
vn -0.372376 -0.928082 0.000000
vn -0.372376 -0.928082 0.000000
vn -0.372376 -0.928082 0.000000
vn -0.337893 0.941185 0.000000
vn -0.337893 0.941185 0.000000
vn -0.337893 0.941185 0.000000
vn -0.337893 0.941185 0.000000
vn -0.372376 -0.928082 -0.000000
vn -0.372376 -0.928082 -0.000000
vn -0.372376 -0.928082 -0.000000
vn 0.494465 -0.869198 -0.000000
vn 0.494465 -0.869198 -0.000000
vn 0.494465 -0.869198 -0.000000
vn 0.941185 0.337892 -0.000000
vn 0.941185 0.337892 -0.000000
vn 0.941185 0.337892 -0.000000
vn 0.669189 0.344405 -0.658462
vn 0.669189 0.344405 -0.658462
vn 0.669189 0.344405 -0.658462
vn 0.669189 0.344405 -0.658462
vn 0.542129 0.379754 0.749588
vn 0.542129 0.379754 0.749588
vn 0.542129 0.379754 0.749588
vn 0.542129 0.379754 0.749588
vn -0.238926 0.665518 0.707107
vn -0.238926 0.665518 0.707107
vn -0.238926 0.665518 0.707107
vn -0.238926 0.665518 0.707107
vn -0.238926 0.665518 0.707107
vn -0.238926 0.665518 -0.707107
vn -0.238926 0.665518 -0.707107
vn -0.238926 0.665518 -0.707107
vn -0.238926 0.665518 -0.707107
vn -0.238926 0.665518 -0.707107
vn -0.263310 -0.656253 -0.707107
vn -0.263310 -0.656252 -0.707107
vn -0.263310 -0.656252 -0.707107
vn -0.263310 -0.656253 -0.707107
vn -0.263309 -0.656253 0.707107
vn -0.263309 -0.656253 0.707107
vn -0.263309 -0.656252 0.707107
vn -0.263309 -0.656253 0.707107
s off
g helmet
usemtl initialShadingGroup
f 5/17/1 6/18/2 8/19/3 7/20/4
f 2/86/5 4/87/6 30/88/7 29/89/8 28/90/9 27/91/10
s 1
f 3/21/11 1/279/12 12/23/13 11/24/14 16/25/15 15/26/16
s off
f 69/256/17 70/257/18 71/258/19 72/259/20
s 2
f 78/290/21 77/36/22 79/298/23 80/38/24
s 3
f 81/92/25 82/282/26 83/94/27 84/274/28
s 4
f 11/110/29 12/116/30 14/112/31 13/107/32
f 13/107/32 14/112/31 23/113/33 24/108/34
s 5
f 15/117/35 16/111/36 18/106/37 17/114/38
f 17/114/38 18/106/37 19/109/39 20/115/40
f 20/51/40 19/43/39 21/46/41 22/52/42
f 22/52/42 21/46/41 29/50/43 30/54/44
s 4
f 24/44/34 23/47/33 25/48/45 26/45/46
f 26/45/46 25/48/45 27/53/47 28/49/48
s 6
f 23/190/49 5/191/50 7/192/51 25/193/52
s 7
f 19/43/53 24/44/54 26/45/55 21/46/56
s 8
f 6/200/57 20/201/58 22/202/59 8/203/60
f 10/204/61 17/205/62 20/201/58 6/200/57
s 9
f 18/106/63 13/107/64 24/108/65 19/109/66
s 6
f 14/194/67 9/195/68 5/191/50 23/190/49
f 25/193/52 7/192/51 2/196/69 27/197/70
s 7
f 21/46/56 26/45/55 28/49/71 29/50/72
s 8
f 8/203/60 22/202/59 30/206/73 4/207/74
f 15/208/75 17/205/62 10/204/61 3/209/76
s 9
f 11/110/77 13/107/64 18/106/63 16/111/78
s 6
f 1/198/79 9/195/68 14/194/67 12/199/80
s 10
f 58/210/81 49/211/82 31/212/83 33/213/84
s 11
f 55/118/85 56/119/86 38/120/87 41/121/88
s 12
f 53/221/89 54/222/90 35/223/91 36/224/92
s 13
f 51/139/93 52/143/94 40/152/95 39/144/96
s 14
f 38/60/97 47/55/98 48/61/99 41/63/100
s 11
f 56/119/86 57/124/101 44/125/102 38/120/87
s 14
f 44/59/103 46/56/104 47/55/98 38/60/97
s 13
f 50/140/105 51/139/93 39/144/96 45/145/106
f 52/143/94 53/151/107 36/155/108 40/152/95
s 14
f 41/121/100 48/134/99 35/127/109
s 11
f 54/126/110 55/118/85 41/121/88 35/127/111
f 57/124/101 58/132/112 33/133/113 44/125/102
s 14
f 33/133/114 46/137/104 44/125/103
s 13
f 49/146/115 50/140/105 45/145/106 31/154/116
s 14
f 31/212/117 45/217/118 46/218/104 33/213/114
f 47/55/98 46/56/104 45/57/118 39/58/119
f 48/61/99 47/55/98 39/58/119 40/62/120
f 35/223/109 48/228/99 40/229/120 36/224/121
s 12
f 34/225/122 54/222/90 53/221/89 60/226/123 59/227/124
s 11
f 42/123/125 55/118/85 54/126/110 34/129/126
f 37/122/127 56/119/86 55/118/85 42/123/125
f 43/128/128 57/124/101 56/119/86 37/122/127
f 32/135/129 58/132/112 57/124/101 43/128/128
s 10
f 68/214/130 67/215/131 49/211/82 58/210/81 32/216/132
s off
f 59/232/133 60/233/134 61/234/135 62/235/136
s 15
f 62/153/137 61/142/138 64/138/139 63/148/140
f 63/148/140 64/138/139 66/141/141 65/149/142
s 16
f 65/236/143 66/237/144 67/238/145 68/239/146
s 17
f 42/123/147 62/130/148 63/131/149 37/122/150
f 37/122/150 63/131/149 65/136/151 43/128/152
f 59/227/153 62/230/148 42/231/147 34/225/154
f 43/219/152 65/220/151 68/214/155 32/216/156
s 16
f 66/141/144 50/140/157 49/146/158 67/147/145
s off
f 64/138/159 51/139/160 50/140/161 66/141/162
f 61/142/163 52/143/164 51/139/165 64/138/166
f 61/142/167 60/150/168 53/151/169 52/143/170
f 9/276/171 10/16/172 70/312/173 69/7/174
f 10/285/175 6/313/176 71/310/177 70/8/178
f 6/5/179 5/311/180 72/309/181 71/9/182
f 5/3/183 9/13/184 69/308/185 72/10/186
f 7/4/187 8/307/188 73/302/189 74/15/190
f 8/6/191 4/305/192 75/301/193 73/11/194
f 4/1/195 2/304/196 76/292/197 75/14/198
f 2/2/199 7/306/200 74/295/201 76/12/202
s 18
f 74/294/203 73/157/204 77/296/205 78/159/206
s off
f 91/240/207 93/241/208 85/242/209 86/243/210
s 19
f 75/300/211 76/167/212 80/288/213 79/169/214
s off
f 97/244/215 95/245/216 87/246/217 88/247/218
f 105/248/219 107/249/220 100/250/221 89/251/222
s 20
f 10/284/223 9/65/224 83/272/225 82/67/226
s off
f 103/252/227 111/253/228 110/254/229 90/255/230
s 1
f 1/278/12 3/286/11 81/280/231 84/28/232
s off
f 73/74/233 75/75/234 94/270/235 92/77/236
s 19
f 75/166/211 79/299/214 85/173/237 93/174/238 94/175/239
s 2
f 79/37/23 77/297/22 86/39/240 85/40/241
s 18
f 77/158/205 73/303/204 92/160/242 91/161/243 86/162/244
s off
f 76/80/245 74/81/246 96/268/247 98/83/248
s 18
f 74/156/203 78/291/206 87/163/249 95/164/250 96/165/251
s 2
f 78/35/21 80/289/24 88/41/252 87/42/253
s 19
f 80/168/213 76/293/212 98/170/254 97/171/255 88/172/256
s off
f 3/176/257 10/177/258 101/266/259 99/179/260
s 20
f 10/64/223 82/283/226 89/71/261 100/72/262 101/73/263
s 3
f 82/93/26 81/281/25 106/96/264 105/263/265 89/98/266
s 1
f 81/27/231 3/287/11 99/29/267 108/30/268 106/31/269
s off
f 9/183/270 1/184/271 102/185/272 104/186/273
s 1
f 1/22/12 84/275/232 109/32/274 112/33/275 102/34/276
s 3
f 84/95/28 83/273/27 90/99/277 110/100/278 109/261/279
s 20
f 83/66/225 9/277/224 104/68/280 103/69/281 90/70/282
s off
f 91/78/283 92/271/284 94/76/285 93/79/286
f 96/82/287 95/84/288 97/85/289 98/269/290
f 102/264/291 112/187/292 111/188/293 103/189/294 104/265/295
f 107/180/296 108/181/297 99/267/298 101/178/299 100/182/300
f 105/97/301 106/262/302 108/102/303 107/103/304
f 109/101/305 110/260/306 111/104/307 112/105/308
